<?xml version="1.0" encoding="UTF-8"?>
<svg version="1.1" xmlns="http://www.w3.org/2000/svg" width="872" height="421">
<path d="M0 0 C287.76 0 575.52 0 872 0 C872 138.93 872 277.86 872 421 C584.24 421 296.48 421 0 421 C0 282.07 0 143.14 0 0 Z " fill="#FDF8F8" transform="translate(0,0)"/>
<path d="M0 0 C9.9 0 19.8 0 30 0 C30 9.9 30 19.8 30 30 C20.1 30 10.2 30 0 30 C0 20.1 0 10.2 0 0 Z " fill="#34AAB4" transform="translate(765,320)"/>
<path d="M0 0 C9.9 0 19.8 0 30 0 C30 9.9 30 19.8 30 30 C20.1 30 10.2 30 0 30 C0 20.1 0 10.2 0 0 Z " fill="#35AAB4" transform="translate(455,317)"/>
<path d="M0 0 C9.9 0 19.8 0 30 0 C30 9.9 30 19.8 30 30 C20.1 30 10.2 30 0 30 C0 20.1 0 10.2 0 0 Z " fill="#33AAB4" transform="translate(146,309)"/>
<path d="M0 0 C9.9 0 19.8 0 30 0 C30 9.9 30 19.8 30 30 C20.1 30 10.2 30 0 30 C0 20.1 0 10.2 0 0 Z " fill="#38ACB6" transform="translate(747,49)"/>
<path d="M0 0 C9.9 0 19.8 0 30 0 C30 9.9 30 19.8 30 30 C20.1 30 10.2 30 0 30 C0 20.1 0 10.2 0 0 Z " fill="#34AAB4" transform="translate(455,49)"/>
<path d="M0 0 C9.9 0 19.8 0 30 0 C30 9.9 30 19.8 30 30 C20.1 30 10.2 30 0 30 C0 20.1 0 10.2 0 0 Z " fill="#37ABB5" transform="translate(131,49)"/>
<path d="M0 0 C6.93 0 13.86 0 21 0 C20.67 0.66 20.34 1.32 20 2 C21.423125 2.4021875 21.423125 2.4021875 22.875 2.8125 C26 4 26 4 28 7 C28.4140625 9.26171875 28.4140625 9.26171875 28.625 11.6875 C28.69976562 12.49574219 28.77453125 13.30398438 28.8515625 14.13671875 C28.92503906 15.05904297 28.92503906 15.05904297 29 16 C27.35425434 16.02688151 25.70838587 16.04634123 24.0625 16.0625 C23.14597656 16.07410156 22.22945313 16.08570313 21.28515625 16.09765625 C19 16 19 16 18 15 C18 15.33 18 15.66 18 16 C12.26157749 16.20413361 7.39460953 16.27141454 2 14 C2.02320313 13.24074219 2.04640625 12.48148437 2.0703125 11.69921875 C2.08835937 10.70535156 2.10640625 9.71148437 2.125 8.6875 C2.14820313 7.70136719 2.17140625 6.71523438 2.1953125 5.69921875 C2.20682639 2.77593473 2.20682639 2.77593473 0 0 Z " fill="#D6AA6F" transform="translate(416,324)"/>
<path d="M0 0 C6.93 0 13.86 0 21 0 C21 0.66 21 1.32 21 2 C20.01 2.495 20.01 2.495 19 3 C20.093125 3.2475 21.18625 3.495 22.3125 3.75 C26 5 26 5 27.9375 6.8125 C29.18689961 9.38479331 29.23546771 11.17438742 29 14 C26.525 13.505 26.525 13.505 24 13 C24 13.66 24 14.32 24 15 C24.66 15.33 25.32 15.66 26 16 C25.4225 15.835 24.845 15.67 24.25 15.5 C21.73335631 14.85537969 21.73335631 14.85537969 18 15 C16.31301918 14.38655243 14.64034193 13.72904086 13 13 C13 13.66 13 14.32 13 15 C13.66 15.33 14.32 15.66 15 16 C12.36 16 9.72 16 7 16 C7 15.34 7 14.68 7 14 C5.35 14 3.7 14 2 14 C2.02320313 13.32453125 2.04640625 12.6490625 2.0703125 11.953125 C2.09738281 10.61507812 2.09738281 10.61507812 2.125 9.25 C2.15980469 7.92742188 2.15980469 7.92742188 2.1953125 6.578125 C2.13640771 3.64219919 2.13640771 3.64219919 0 0 Z " fill="#CEA369" transform="translate(708,56)"/>
<path d="M0 0 C7.26 0 14.52 0 22 0 C22 0.66 22 1.32 22 2 C21.01 2.495 21.01 2.495 20 3 C21.670625 3.433125 21.670625 3.433125 23.375 3.875 C27 5 27 5 29 7 C29.40047444 9.32275177 29.7397104 11.65739357 30 14 C27.525 13.505 27.525 13.505 25 13 C25 13.66 25 14.32 25 15 C25.66 15.33 26.32 15.66 27 16 C26.4225 15.835 25.845 15.67 25.25 15.5 C22.73335631 14.85537969 22.73335631 14.85537969 19 15 C18.34 14.67 17.68 14.34 17 14 C17 14.66 17 15.32 17 16 C15.68 15.67 14.36 15.34 13 15 C13.66 15 14.32 15 15 15 C15 14.34 15 13.68 15 13 C13.68 13.33 12.36 13.66 11 14 C11 14.66 11 15.32 11 16 C10.01 16 9.02 16 8 16 C8 15.34 8 14.68 8 14 C6.35 14 4.7 14 3 14 C3.03480469 13.32453125 3.06960937 12.6490625 3.10546875 11.953125 C3.13253906 11.06109375 3.15960938 10.1690625 3.1875 9.25 C3.22230469 8.36828125 3.25710937 7.4865625 3.29296875 6.578125 C3.16538035 3.51795796 3.16538035 3.51795796 0 0 Z " fill="#DD8361" transform="translate(91,56)"/>
<path d="M0 0 C6.93 0 13.86 0 21 0 C20.67 1.32 20.34 2.64 20 4 C19.96213099 5.66623639 19.95372155 7.33397597 20 9 C22.31 9 24.62 9 27 9 C27.33 8.34 27.66 7.68 28 7 C28.33 9.31 28.66 11.62 29 14 C28.34 14 27.68 14 27 14 C27 14.66 27 15.32 27 16 C18.09 16 9.18 16 0 16 C0.66 14.68 1.32 13.36 2 12 C2.31321939 9.7422059 2.31321939 9.7422059 2.25 7.4375 C2.25515625 6.67308594 2.2603125 5.90867187 2.265625 5.12109375 C2.1229561 2.70017238 2.1229561 2.70017238 0 0 Z " fill="#DEB273" transform="translate(726,327)"/>
<path d="M0 0 C7.26 0 14.52 0 22 0 C22 0.66 22 1.32 22 2 C21.01 2.495 21.01 2.495 20 3 C22.97 3.495 22.97 3.495 26 4 C26 4.33 26 4.66 26 5 C24.35 5 22.7 5 21 5 C21 6.32 21 7.64 21 9 C23.64 8.67 26.28 8.34 29 8 C29.33 9.98 29.66 11.96 30 14 C26.31282562 16.45811625 24.35654296 16.31118164 20 16 C19.01 15.34 18.02 14.68 17 14 C17 14.66 17 15.32 17 16 C15.68 15.67 14.36 15.34 13 15 C13.66 15 14.32 15 15 15 C15 14.34 15 13.68 15 13 C13.68 13.33 12.36 13.66 11 14 C11 14.66 11 15.32 11 16 C10.01 16 9.02 16 8 16 C8 15.34 8 14.68 8 14 C6.35 14 4.7 14 3 14 C2.92652344 12.86111328 2.92652344 12.86111328 2.8515625 11.69921875 C2.77679688 10.70535156 2.70203125 9.71148437 2.625 8.6875 C2.55539063 7.70136719 2.48578125 6.71523438 2.4140625 5.69921875 C2.16134528 2.78471567 2.16134528 2.78471567 0 0 Z " fill="#DAB784" transform="translate(106,316)"/>
<path d="M0 0 C6.93 0 13.86 0 21 0 C21 0.66 21 1.32 21 2 C20.34 2 19.68 2 19 2 C19 2.66 19 3.32 19 4 C20.98 4 22.96 4 25 4 C23.68 4.33 22.36 4.66 21 5 C21.33 6.65 21.66 8.3 22 10 C21.34 10 20.68 10 20 10 C20 10.66 20 11.32 20 12 C20.928125 11.773125 21.85625 11.54625 22.8125 11.3125 C26 11 26 11 27.875 12.4375 C28.431875 13.2109375 28.431875 13.2109375 29 14 C26 16 26 16 24.0625 15.625 C23.381875 15.41875 22.70125 15.2125 22 15 C20.68 15 19.36 15 18 15 C17.34 14.67 16.68 14.34 16 14 C16 14.66 16 15.32 16 16 C15.2575 15.835 14.515 15.67 13.75 15.5 C10.80993422 14.88074304 10.80993422 14.88074304 7 15 C5.32774271 14.69595322 3.65919896 14.36871088 2 14 C2.02320313 13.32453125 2.04640625 12.6490625 2.0703125 11.953125 C2.09738281 10.61507812 2.09738281 10.61507812 2.125 9.25 C2.15980469 7.92742188 2.15980469 7.92742188 2.1953125 6.578125 C2.13640771 3.64219919 2.13640771 3.64219919 0 0 Z " fill="#D6AB6F" transform="translate(416,56)"/>
<path d="M0 0 C9.9 0 19.8 0 30 0 C30 9.9 30 19.8 30 30 C20.1 30 10.2 30 0 30 C0 20.1 0 10.2 0 0 Z M2 2 C2 10.58 2 19.16 2 28 C10.58 28 19.16 28 28 28 C28 19.42 28 10.84 28 2 C19.42 2 10.84 2 2 2 Z " fill="#75C5CB" transform="translate(455,317)"/>
<path d="M0 0 C9.9 0 19.8 0 30 0 C30 9.9 30 19.8 30 30 C20.1 30 10.2 30 0 30 C0 20.1 0 10.2 0 0 Z M2 2 C2 10.58 2 19.16 2 28 C10.58 28 19.16 28 28 28 C28 19.42 28 10.84 28 2 C19.42 2 10.84 2 2 2 Z " fill="#74C4CB" transform="translate(765,320)"/>
<path d="M0 0 C9.9 0 19.8 0 30 0 C30 9.9 30 19.8 30 30 C20.1 30 10.2 30 0 30 C0 20.1 0 10.2 0 0 Z M2 2 C2 10.58 2 19.16 2 28 C10.58 28 19.16 28 28 28 C28 19.42 28 10.84 28 2 C19.42 2 10.84 2 2 2 Z " fill="#72C4CB" transform="translate(146,309)"/>
<path d="M0 0 C9.9 0 19.8 0 30 0 C30 9.9 30 19.8 30 30 C20.1 30 10.2 30 0 30 C0 20.1 0 10.2 0 0 Z M2 2 C2 10.58 2 19.16 2 28 C10.58 28 19.16 28 28 28 C28 19.42 28 10.84 28 2 C19.42 2 10.84 2 2 2 Z " fill="#7DC8CE" transform="translate(747,49)"/>
<path d="M0 0 C9.9 0 19.8 0 30 0 C30 9.9 30 19.8 30 30 C20.1 30 10.2 30 0 30 C0 20.1 0 10.2 0 0 Z M2 2 C2 10.58 2 19.16 2 28 C10.58 28 19.16 28 28 28 C28 19.42 28 10.84 28 2 C19.42 2 10.84 2 2 2 Z " fill="#80C9CF" transform="translate(455,49)"/>
<path d="M0 0 C9.9 0 19.8 0 30 0 C30 9.9 30 19.8 30 30 C20.1 30 10.2 30 0 30 C0 20.1 0 10.2 0 0 Z M2 2 C2 10.58 2 19.16 2 28 C10.58 28 19.16 28 28 28 C28 19.42 28 10.84 28 2 C19.42 2 10.84 2 2 2 Z " fill="#71C4CB" transform="translate(131,49)"/>
<path d="M0 0 C2.4375 1.4375 2.4375 1.4375 4 4 C4.02646495 7.07522774 3.59220351 9.98748647 3 13 C0.1369307 13.63084578 -2.11120671 14.12281376 -5 14 C-8.20954236 11.72657416 -9.71265534 10.30901458 -10.5625 6.4375 C-9.23776611 0.69698646 -5.56479118 -0.9274652 0 0 Z " fill="#FD4E36" transform="translate(501,75)"/>
<path d="M0 0 C0.66 -0.33 1.32 -0.66 2 -1 C1.93983797 0.7717719 1.85100672 2.54258679 1.75 4.3125 C1.68039063 5.79169922 1.68039063 5.79169922 1.609375 7.30078125 C1 10 1 10 -0.8203125 11.86328125 C-4.13578459 13.59231777 -6.46782553 12.91574894 -10 12 C-12.33043558 8.50434664 -12.58763244 7.1134271 -12 3 C-8.176815 -1.51830955 -5.53304336 -1.14836749 0 0 Z " fill="#FB4D35" transform="translate(193,308)"/>
<path d="M0 0 C2.4375 1.5625 2.4375 1.5625 4 4 C4 7.81153499 3.80074051 10.05097421 1.3125 13 C-1.89970645 14.38906225 -3.6936636 14.05521374 -7 13 C-9.27605184 10.87568495 -9.90218604 9.55893694 -10.4375 6.5 C-9.41545969 0.65976965 -5.50319355 -0.91719892 0 0 Z " fill="#FE4A32" transform="translate(771,293)"/>
<path d="M0 0 C1.875 1.1875 1.875 1.1875 3 3 C3.54068562 6.63031776 3.46379841 8.32214079 1.375 11.375 C-1 13 -1 13 -4 13.5625 C-7 13 -7 13 -9.4375 10.875 C-11 8 -11 8 -11 4.875 C-10 2 -10 2 -8.3125 0.0625 C-5.12702876 -1.40109489 -3.32118677 -0.98928968 0 0 Z " fill="#FF4B33" transform="translate(657,142)"/>
<path d="M0 0 C2.4375 1.5625 2.4375 1.5625 4 4 C3.9375 7.625 3.9375 7.625 3 11 C-0.70415293 13.46943529 -2.62144505 13.46913089 -7 13 C-9 11.4375 -9 11.4375 -10 9 C-9.875 5.375 -9.875 5.375 -9 2 C-5.50875983 -0.32749345 -4.10777749 -0.50299316 0 0 Z " fill="#FC4A32" transform="translate(703,317)"/>
<path d="M0 0 C1.9375 1.125 1.9375 1.125 3 3 C3.54068562 6.63031776 3.46379841 8.32214079 1.375 11.375 C-1.67785921 13.46379841 -3.36968224 13.54068562 -7 13 C-9.64327625 11.35934577 -9.98513249 10.04658485 -10.9375 7.0625 C-11 4 -11 4 -9.5 1.625 C-6.1204721 -0.57169314 -3.95601633 -0.50349299 0 0 Z " fill="#FF4B33" transform="translate(725,149)"/>
<path d="M0 0 C1.875 1.1875 1.875 1.1875 3 3 C3.53852618 6.61581862 3.42236225 8.34111489 1.4375 11.4375 C-1 13 -1 13 -4.625 12.875 C-8 12 -8 12 -10 10 C-10.67973856 2.8627451 -10.67973856 2.8627451 -8.375 -0.0625 C-5.15632669 -1.33302894 -3.29045231 -0.98013473 0 0 Z " fill="#FF4B33" transform="translate(190,95)"/>
<path d="M0 0 C4.35653019 1.39038198 4.35653019 1.39038198 5.9375 3.9375 C6.47602618 7.55331862 6.35986225 9.27861489 4.375 12.375 C1.9375 13.9375 1.9375 13.9375 -1.6875 13.8125 C-5.0625 12.9375 -5.0625 12.9375 -7.0625 10.9375 C-7.49772403 7.0204837 -7.61342928 4.78508351 -5.4375 1.4375 C-3.0625 -0.0625 -3.0625 -0.0625 0 0 Z " fill="#FE4930" transform="translate(390.0625,42.0625)"/>
<path d="M0 0 C1.9375 1.0625 1.9375 1.0625 3 3 C3.36528977 6.4093712 3.6140629 8.88023824 1.9375 11.9375 C-1.11976176 13.6140629 -3.5906288 13.36528977 -7 13 C-8.9375 11.9375 -8.9375 11.9375 -10 10 C-10.36528977 6.5906288 -10.6140629 4.11976176 -8.9375 1.0625 C-5.88023824 -0.6140629 -3.4093712 -0.36528977 0 0 Z " fill="#FC4B33" transform="translate(503,324)"/>
<path d="M0 0 C0.66 0 1.32 0 2 0 C2.33 1.32 2.66 2.64 3 4 C4.32 3.34 5.64 2.68 7 2 C7 1.34 7 0.68 7 0 C7.99 0 8.98 0 10 0 C10 0.66 10 1.32 10 2 C12.31 2.66 14.62 3.32 17 4 C17 5.98 17 7.96 17 10 C16.34 10 15.68 10 15 10 C15 8.02 15 6.04 15 4 C14.01 4.495 14.01 4.495 13 5 C12.34444881 7.52733235 12.34444881 7.52733235 12 10 C9.69 10 7.38 10 5 10 C4.67 9.01 4.34 8.02 4 7 C3.34 7 2.68 7 2 7 C1.67 7.99 1.34 8.98 1 10 C-1.33333333 10 -3.66666667 10 -6 10 C-6.38133299 8.0085944 -6.71325582 6.00720923 -7 4 C-6 3 -6 3 -3.4375 2.9375 C-2.2309375 2.9684375 -2.2309375 2.9684375 -1 3 C-0.67 2.01 -0.34 1.02 0 0 Z " fill="#797777" transform="translate(686,134)"/>
<path d="M0 0 C3.375 -0.125 3.375 -0.125 7 0 C10.00617269 3.00617269 9.59585316 5.82381598 10 10 C10.86882812 10.06058594 11.73765625 10.12117188 12.6328125 10.18359375 C13.78523438 10.26738281 14.93765625 10.35117188 16.125 10.4375 C17.26195313 10.51871094 18.39890625 10.59992188 19.5703125 10.68359375 C22.7540478 10.97730965 25.85510907 11.43124313 29 12 C28.01 12.33 27.02 12.66 26 13 C25.34 12.67 24.68 12.34 24 12 C24 12.66 24 13.32 24 14 C24.66 14.33 25.32 14.66 26 15 C25.4225 14.835 24.845 14.67 24.25 14.5 C21.73335631 13.85537969 21.73335631 13.85537969 18 14 C17.34 13.67 16.68 13.34 16 13 C16 13.66 16 14.32 16 15 C14.68 14.67 13.36 14.34 12 14 C12.66 14 13.32 14 14 14 C14 13.34 14 12.68 14 12 C12.68 12.33 11.36 12.66 10 13 C10 13.66 10 14.32 10 15 C9.01 15 8.02 15 7 15 C7 14.34 7 13.68 7 13 C5.35 13 3.7 13 2 13 C2.02320312 12.31292969 2.04640625 11.62585938 2.0703125 10.91796875 C2.08835937 10.01691406 2.10640625 9.11585937 2.125 8.1875 C2.14820312 7.29417969 2.17140625 6.40085937 2.1953125 5.48046875 C2.18285827 2.74597286 2.18285827 2.74597286 0 0 Z " fill="#C3915C" transform="translate(92,57)"/>
<path d="M0 0 C2.875 -0.1875 2.875 -0.1875 6 0 C6.66 0.99 7.32 1.98 8 3 C7.34 3 6.68 3 6 3 C6 3.99 6 4.98 6 6 C6.66 6 7.32 6 8 6 C8.33 7.32 8.66 8.64 9 10 C11.0831793 10.16858098 13.16655044 10.33479255 15.25 10.5 C16.41015625 10.5928125 17.5703125 10.685625 18.765625 10.78125 C21.17268658 10.94404644 23.58743951 11 26 11 C26.66 11.66 27.32 12.32 28 13 C25.525 12.505 25.525 12.505 23 12 C23 12.66 23 13.32 23 14 C23.66 14.33 24.32 14.66 25 15 C24.4225 14.835 23.845 14.67 23.25 14.5 C20.73335631 13.85537969 20.73335631 13.85537969 17 14 C15.31301918 13.38655243 13.64034193 12.72904086 12 12 C12 12.66 12 13.32 12 14 C12.66 14.33 13.32 14.66 14 15 C11.36 15 8.72 15 6 15 C6 14.34 6 13.68 6 13 C4.35 13 2.7 13 1 13 C1.01160156 12.31292969 1.02320313 11.62585938 1.03515625 10.91796875 C1.04417969 10.01691406 1.05320312 9.11585937 1.0625 8.1875 C1.07410156 7.29417969 1.08570313 6.40085937 1.09765625 5.48046875 C1.11009967 2.86586209 1.11009967 2.86586209 0 0 Z " fill="#B2895E" transform="translate(709,57)"/>
<path d="M0 0 C2.31 0 4.62 0 7 0 C7 0.33 7 0.66 7 1 C5.35 1 3.7 1 2 1 C2 2.32 2 3.64 2 5 C4.64 4.67 7.28 4.34 10 4 C10.33 5.98 10.66 7.96 11 10 C7.31282562 12.45811625 5.35654296 12.31118164 1 12 C0.01 11.34 -0.98 10.68 -2 10 C-2 10.66 -2 11.32 -2 12 C-3.32 11.67 -4.64 11.34 -6 11 C-5.34 11 -4.68 11 -4 11 C-4 10.34 -4 9.68 -4 9 C-5.32 9.33 -6.64 9.66 -8 10 C-8 10.66 -8 11.32 -8 12 C-8.99 12 -9.98 12 -11 12 C-11 11.34 -11 10.68 -11 10 C-12.65 10 -14.3 10 -16 10 C-15.67 9.34 -15.34 8.68 -15 8 C-10.05 8 -5.1 8 0 8 C0 5.36 0 2.72 0 0 Z " fill="#414C53" transform="translate(125,320)"/>
<path d="M0 0 C3.18819752 0.33916995 5.95781049 0.98593683 9 2 C9 3.98 9 5.96 9 8 C9.66 8 10.32 8 11 8 C11 6.35 11 4.7 11 3 C11.66 3 12.32 3 13 3 C13 4.98 13 6.96 13 9 C11.1875 9.625 11.1875 9.625 9 10 C8.01 9.34 7.02 8.68 6 8 C5.175 8.33 4.35 8.66 3.5 9 C2.675 9.33 1.85 9.66 1 10 C0.01 9.34 -0.98 8.68 -2 8 C-2.3125 5 -2.3125 5 -2 2 C-1.34 1.34 -0.68 0.68 0 0 Z " fill="#939191" transform="translate(372,103)"/>
<path d="M0 0 C0 0.66 0 1.32 0 2 C-0.66 2 -1.32 2 -2 2 C-2 2.66 -2 3.32 -2 4 C-10.91 4 -19.82 4 -29 4 C-29 3.67 -29 3.34 -29 3 C-26.69 3 -24.38 3 -22 3 C-22 2.34 -22 1.68 -22 1 C-22.99 0.67 -23.98 0.34 -25 0 C-17.10770571 -1.26276709 -7.65568977 -2.55189659 0 0 Z " fill="#5D6973" transform="translate(755,339)"/>
<path d="M0 0 C3.625 0.375 3.625 0.375 7 1 C7 1.66 7 2.32 7 3 C7.66 3 8.32 3 9 3 C9 4.65 9 6.3 9 8 C9.99 8 10.98 8 12 8 C12 6.35 12 4.7 12 3 C12.66 3 13.32 3 14 3 C14 4.98 14 6.96 14 9 C11.33333333 9 8.66666667 9 6 9 C5.01 9.04125 4.02 9.0825 3 9.125 C0 9 0 9 -2 7 C-2.25 4.5 -2.25 4.5 -2 2 C-1.34 1.34 -0.68 0.68 0 0 Z " fill="#929090" transform="translate(162,363)"/>
<path d="M0 0 C2.31 0 4.62 0 7 0 C5.68 0.33 4.36 0.66 3 1 C3.33 2.65 3.66 4.3 4 6 C3.34 6 2.68 6 2 6 C2 6.66 2 7.32 2 8 C2.928125 7.773125 3.85625 7.54625 4.8125 7.3125 C8 7 8 7 9.875 8.4375 C10.431875 9.2109375 10.431875 9.2109375 11 10 C8 12 8 12 6.0625 11.625 C5.381875 11.41875 4.70125 11.2125 4 11 C2.68 11 1.36 11 0 11 C-0.66 10.67 -1.32 10.34 -2 10 C-2 10.66 -2 11.32 -2 12 C-2.7425 11.835 -3.485 11.67 -4.25 11.5 C-7.19006578 10.88074304 -7.19006578 10.88074304 -11 11 C-11.99 10.34 -12.98 9.68 -14 9 C-9.38 8.67 -4.76 8.34 0 8 C0 5.36 0 2.72 0 0 Z " fill="#E75553" transform="translate(434,60)"/>
<path d="M0 0 C0.33 0 0.66 0 1 0 C1 2.64 1 5.28 1 8 C-0.65 8 -2.3 8 -4 8 C-4.33 7.34 -4.66 6.68 -5 6 C-7.02463255 5.34786708 -7.02463255 5.34786708 -9 5 C-9 5.66 -9 6.32 -9 7 C-8.01 6.67 -7.02 6.34 -6 6 C-6 6.66 -6 7.32 -6 8 C-10.66666667 8 -15.33333333 8 -20 8 C-19.67 7.01 -19.34 6.02 -19 5 C-19 5.66 -19 6.32 -19 7 C-18.34 7 -17.68 7 -17 7 C-17 5.68 -17 4.36 -17 3 C-17.66 2.67 -18.32 2.34 -19 2 C-14.19985349 0.7691932 -10.80291599 1.31847972 -6.1484375 2.625 C-3.77168664 3.03985106 -2.27379628 2.74078431 0 2 C0 1.34 0 0.68 0 0 Z " fill="#C0C2CA" transform="translate(195,124)"/>
<path d="M0 0 C2.31 0 4.62 0 7 0 C8.04449911 3.13349732 7.93423645 3.98968256 7 7 C7.66 7 8.32 7 9 7 C9 7.66 9 8.32 9 9 C8.34 9 7.68 9 7 9 C7 9.99 7 10.98 7 12 C8.65 12 10.3 12 12 12 C11.34 13.32 10.68 14.64 10 16 C7.36 15.34 4.72 14.68 2 14 C2.02320313 13.24074219 2.04640625 12.48148437 2.0703125 11.69921875 C2.08835937 10.70535156 2.10640625 9.71148437 2.125 8.6875 C2.14820313 7.70136719 2.17140625 6.71523438 2.1953125 5.69921875 C2.20682639 2.77593473 2.20682639 2.77593473 0 0 Z " fill="#B08F6A" transform="translate(416,324)"/>
<path d="M0 0 C0.33 0 0.66 0 1 0 C1 9.57 1 19.14 1 29 C-12.86 28.505 -12.86 28.505 -27 28 C-27 27.67 -27 27.34 -27 27 C-18.42 27 -9.84 27 -1 27 C-1.03959276 18.48837175 -1.03959276 18.48837175 -1.09008789 9.97680664 C-1.09383423 8.3969397 -1.09383423 8.3969397 -1.09765625 6.78515625 C-1.10551147 5.15912476 -1.10551147 5.15912476 -1.11352539 3.50024414 C-1 1 -1 1 0 0 Z " fill="#66BFC7" transform="translate(776,50)"/>
<path d="M0 0 C0.33 0 0.66 0 1 0 C1 9.57 1 19.14 1 29 C-12.86 28.505 -12.86 28.505 -27 28 C-27 27.67 -27 27.34 -27 27 C-18.42 27 -9.84 27 -1 27 C-1.03959276 18.48837175 -1.03959276 18.48837175 -1.09008789 9.97680664 C-1.09383423 8.3969397 -1.09383423 8.3969397 -1.09765625 6.78515625 C-1.10551147 5.15912476 -1.10551147 5.15912476 -1.11352539 3.50024414 C-1 1 -1 1 0 0 Z " fill="#63BEC6" transform="translate(484,50)"/>
<path d="M0 0 C2.875 -0.125 2.875 -0.125 6 0 C8.65115841 2.65115841 8.39072791 4.51389959 8.65625 8.125 C8.86035366 10.23902286 8.86035366 10.23902286 11 12 C3.25 13.125 3.25 13.125 1 12 C1.01740234 11.07767578 1.01740234 11.07767578 1.03515625 10.13671875 C1.04417969 9.32847656 1.05320312 8.52023438 1.0625 7.6875 C1.07410156 6.88699219 1.08570313 6.08648437 1.09765625 5.26171875 C1.09657855 2.83138666 1.09657855 2.83138666 0 0 Z " fill="#C59760" transform="translate(417,57)"/>
<path d="M0 0 C1.50046875 0.00386719 1.50046875 0.00386719 3.03125 0.0078125 C4.0315625 0.00523437 5.031875 0.00265625 6.0625 0 C8.53125 0.1328125 8.53125 0.1328125 9.53125 1.1328125 C9.57205783 3.13239614 9.57379356 5.13326504 9.53125 7.1328125 C5.04011589 7.1328125 0.93586018 7.08516065 -3.46875 6.1328125 C-3.511471 4.46669345 -3.50938832 2.79898365 -3.46875 1.1328125 C-2.46875 0.1328125 -2.46875 0.1328125 0 0 Z " fill="#9A9898" transform="translate(537.46875,372.8671875)"/>
<path d="M0 0 C3.375 -0.125 3.375 -0.125 7 0 C9.39763185 2.39763185 9.34280586 3.33273498 9.625 6.625 C9.69976562 7.44226563 9.77453125 8.25953125 9.8515625 9.1015625 C9.92503906 10.04128906 9.92503906 10.04128906 10 11 C7.36 11.33 4.72 11.66 2 12 C1.93941406 11.30132812 1.87882812 10.60265625 1.81640625 9.8828125 C1.73261719 8.97273438 1.64882812 8.06265625 1.5625 7.125 C1.48128906 6.22007812 1.40007812 5.31515625 1.31640625 4.3828125 C1.13010715 1.98889139 1.13010715 1.98889139 0 0 Z " fill="#CBA375" transform="translate(107,317)"/>
<path d="M0 0 C5.625 -0.25 5.625 -0.25 9 2 C9 2.66 9 3.32 9 4 C8.34 4 7.68 4 7 4 C7 4.99 7 5.98 7 7 C7.66 7 8.32 7 9 7 C9.33 8.65 9.66 10.3 10 12 C6.77208445 14.1519437 5.71599191 14.20086443 2 14 C2.02320313 13.24074219 2.04640625 12.48148437 2.0703125 11.69921875 C2.08835937 10.70535156 2.10640625 9.71148437 2.125 8.6875 C2.14820313 7.70136719 2.17140625 6.71523438 2.1953125 5.69921875 C2.20682639 2.77593473 2.20682639 2.77593473 0 0 Z " fill="#B88D5F" transform="translate(726,327)"/>
<path d="M0 0 C0.886875 0.185625 1.77375 0.37125 2.6875 0.5625 C5.87685449 0.9837355 7.92099829 0.76975043 11 0 C11.66 0 12.32 0 13 0 C13 1.65 13 3.3 13 5 C13.66 5 14.32 5 15 5 C15 3.35 15 1.7 15 0 C15.33 0 15.66 0 16 0 C16 1.98 16 3.96 16 6 C12.7 6 9.4 6 6 6 C6 5.34 6 4.68 6 4 C5.01 4.66 4.02 5.32 3 6 C0.8125 5.625 0.8125 5.625 -1 5 C-0.67 3.35 -0.34 1.7 0 0 Z " fill="#C4C6CD" transform="translate(56,151)"/>
<path d="M0 0 C1.1446875 0.2475 1.1446875 0.2475 2.3125 0.5 C5.00856207 1.00159294 6.44020291 0.8532657 9 0 C9.82638376 2.89234315 10 4.88742431 10 8 C2.75 8 2.75 8 -1 7 C-1.04254356 5.00045254 -1.04080783 2.99958364 -1 1 C-0.67 0.67 -0.34 0.34 0 0 Z " fill="#93D2D7" transform="translate(466,61)"/>
<path d="M0 0 C2.3828125 0.0234375 2.3828125 0.0234375 5.125 0.375 C6.03507813 0.48585938 6.94515625 0.59671875 7.8828125 0.7109375 C8.93082031 0.85402344 8.93082031 0.85402344 10 1 C9.67 1.66 9.34 2.32 9 3 C9.66 3.33 10.32 3.66 11 4 C10.67 5.32 10.34 6.64 10 8 C6.37 7.67 2.74 7.34 -1 7 C-1.33 5.35 -1.66 3.7 -2 2 C-1.34 1.34 -0.68 0.68 0 0 Z " fill="#9F9C9C" transform="translate(134,365)"/>
<path d="M0 0 C1.2065625 0.0309375 1.2065625 0.0309375 2.4375 0.0625 C2.4375 3.17507569 2.26388376 5.17015685 1.4375 8.0625 C-0.04156892 8.08939216 -1.52077483 8.10884621 -3 8.125 C-4.23556641 8.14240234 -4.23556641 8.14240234 -5.49609375 8.16015625 C-7.5625 8.0625 -7.5625 8.0625 -8.5625 7.0625 C-8.60330783 5.06291636 -8.60504356 3.06204746 -8.5625 1.0625 C-7.3559375 1.0934375 -7.3559375 1.0934375 -6.125 1.125 C-3.0866539 1.050894 -3.0383461 0.074106 0 0 Z " fill="#94D2D7" transform="translate(473.5625,327.9375)"/>
<path d="M0 0 C7.26 0 14.52 0 22 0 C21.67 0.66 21.34 1.32 21 2 C19.700625 1.979375 18.40125 1.95875 17.0625 1.9375 C15.70834367 1.91600546 14.35243917 1.92851801 13 2 C12.67 2.33 12.34 2.66 12 3 C12.99 3.33 13.98 3.66 15 4 C15.33 6.64 15.66 9.28 16 12 C14.33388095 12.042721 12.66617115 12.04063832 11 12 C9.18808118 10.18808118 9.5276487 7.27648701 9.28125 4.8125 C9.18001957 2.9832467 9.18001957 2.9832467 8 2 C6.65252916 1.76924918 5.29622435 1.58846937 3.9375 1.4375 C2.638125 1.293125 1.33875 1.14875 0 1 C0 0.67 0 0.34 0 0 Z " fill="#DAB785" transform="translate(91,56)"/>
<path d="M0 0 C2.125 0.375 2.125 0.375 4 1 C4 1.66 4 2.32 4 3 C4.99 2.01 5.98 1.02 7 0 C7.66 0.33 8.32 0.66 9 1 C9.625 4.0625 9.625 4.0625 10 7 C6.01080675 8.1004671 2.98919325 8.1004671 -1 7 C-1.625 4.625 -1.625 4.625 -2 2 C-1.34 1.34 -0.68 0.68 0 0 Z " fill="#94D2D7" transform="translate(157,321)"/>
<path d="M0 0 C1.65 0.33 3.3 0.66 5 1 C4.67 1.66 4.34 2.32 4 3 C3.01 3 2.02 3 1 3 C3.475 3.99 3.475 3.99 6 5 C6.99 4.01 7.98 3.02 9 2 C10.32 2.66 11.64 3.32 13 4 C13 5.65 13 7.3 13 9 C11.1875 9.625 11.1875 9.625 9 10 C8.01 9.34 7.02 8.68 6 8 C5.67 8.33 5.34 8.66 5 9 C3.00041636 9.04080783 0.99954746 9.04254356 -1 9 C-1 8.34 -1 7.68 -1 7 C1.475 7.495 1.475 7.495 4 8 C4 7.34 4 6.68 4 6 C1.525 5.01 1.525 5.01 -1 4 C-0.67 2.68 -0.34 1.36 0 0 Z " fill="#5B5A5A" transform="translate(421,103)"/>
<path d="M0 0 C1.1446875 0.2475 1.1446875 0.2475 2.3125 0.5 C5.70452174 1.13107381 7.70543302 1.09818899 11 0 C11 2.31 11 4.62 11 7 C7.37 7 3.74 7 0 7 C-1 2 -1 2 0 0 Z " fill="#90D0D6" transform="translate(775,332)"/>
<path d="M0 0 C3.95827235 -0.05785647 7.9164367 -0.09354717 11.875 -0.125 C13.00292969 -0.14175781 14.13085938 -0.15851563 15.29296875 -0.17578125 C16.36933594 -0.18222656 17.44570312 -0.18867187 18.5546875 -0.1953125 C19.54968262 -0.20578613 20.54467773 -0.21625977 21.56982422 -0.22705078 C24 0 24 0 26 2 C23.525 1.505 23.525 1.505 21 1 C21 1.66 21 2.32 21 3 C21.66 3.33 22.32 3.66 23 4 C22.4225 3.835 21.845 3.67 21.25 3.5 C18.73335631 2.85537969 18.73335631 2.85537969 15 3 C14.34 2.67 13.68 2.34 13 2 C13 2.66 13 3.32 13 4 C11.68 3.67 10.36 3.34 9 3 C9.66 3 10.32 3 11 3 C11 2.34 11 1.68 11 1 C9.68 1.33 8.36 1.66 7 2 C7 2.66 7 3.32 7 4 C6.01 4 5.02 4 4 4 C4 3.34 4 2.68 4 2 C2.35 2 0.7 2 -1 2 C-0.67 1.34 -0.34 0.68 0 0 Z " fill="#505558" transform="translate(95,68)"/>
<path d="M0 0 C6.93 0 13.86 0 21 0 C20.67 0.66 20.34 1.32 20 2 C18.35 2 16.7 2 15 2 C14.34 3.98 13.68 5.96 13 8 C10.03 7.505 10.03 7.505 7 7 C7.185625 6.360625 7.37125 5.72125 7.5625 5.0625 C7.706875 4.381875 7.85125 3.70125 8 3 C6.81575674 1.58422523 6.81575674 1.58422523 3.4375 1.9375 C1.7359375 1.9684375 1.7359375 1.9684375 0 2 C0 1.34 0 0.68 0 0 Z " fill="#DEB882" transform="translate(708,56)"/>
<path d="M0 0 C0.99 0 1.98 0 3 0 C3 0.99 3 1.98 3 3 C4.32 2.67 5.64 2.34 7 2 C7 2.99 7 3.98 7 5 C7.66 5.33 8.32 5.66 9 6 C9 6.99 9 7.98 9 9 C3.375 10.125 3.375 10.125 0 9 C0 6.03 0 3.06 0 0 Z " fill="#8E8C8C" transform="translate(114,363)"/>
<path d="M0 0 C2.29160319 -0.02692484 4.58329546 -0.04636124 6.875 -0.0625 C8.15117187 -0.07410156 9.42734375 -0.08570313 10.7421875 -0.09765625 C14 0 14 0 16 1 C16 2.32 16 3.64 16 5 C14.35425434 5.02688151 12.70838587 5.04634123 11.0625 5.0625 C10.14597656 5.07410156 9.22945313 5.08570313 8.28515625 5.09765625 C6 5 6 5 5 4 C5 4.33 5 4.66 5 5 C2.69 5 0.38 5 -2 5 C-1.34 4.34 -0.68 3.68 0 3 C0 2.01 0 1.02 0 0 Z " fill="#3D4D5F" transform="translate(429,335)"/>
<path d="M0 0 C1.67004829 0.31595508 3.33637583 0.65179959 5 1 C7.72502965 0.62277985 7.72502965 0.62277985 10 0 C10 2.31 10 4.62 10 7 C8.35 7.33 6.7 7.66 5 8 C4.67 6.68 4.34 5.36 4 4 C2.68 3.67 1.36 3.34 0 3 C0 3.66 0 4.32 0 5 C0.99 4.67 1.98 4.34 3 4 C3 4.66 3 5.32 3 6 C1.68 6 0.36 6 -1 6 C-1.625 4.125 -1.625 4.125 -2 2 C-1.34 1.34 -0.68 0.68 0 0 Z " fill="#C7C9D0" transform="translate(151,126)"/>
<path d="M0 0 C1.485 0.99 1.485 0.99 3 2 C3.33 1.34 3.66 0.68 4 0 C4.66 0 5.32 0 6 0 C6.33 0.99 6.66 1.98 7 3 C7.33 2.01 7.66 1.02 8 0 C8.99 0 9.98 0 11 0 C11 0.66 11 1.32 11 2 C12.32 2.33 13.64 2.66 15 3 C15 4.65 15 6.3 15 8 C14.01 6.68 13.02 5.36 12 4 C11.34 5.32 10.68 6.64 10 8 C9.67 7.01 9.34 6.02 9 5 C8.01 5.99 7.02 6.98 6 8 C5.34 7.34 4.68 6.68 4 6 C3.67 6.66 3.34 7.32 3 8 C2.34 8 1.68 8 1 8 C0.67 5.36 0.34 2.72 0 0 Z " fill="#B8BBC4" transform="translate(93,384)"/>
<path d="M0 0 C2.31 0.33 4.62 0.66 7 1 C7.125 3.875 7.125 3.875 7 7 C5 9 5 9 2.375 9.125 C1.59125 9.08375 0.8075 9.0425 0 9 C0 6.03 0 3.06 0 0 Z " fill="#8B8989" transform="translate(662,119)"/>
<path d="M0 0 C0.99 0.99 1.98 1.98 3 3 C3.33 2.01 3.66 1.02 4 0 C4.66 0 5.32 0 6 0 C6 1.32 6 2.64 6 4 C6.66 4 7.32 4 8 4 C8.33 2.68 8.66 1.36 9 0 C9.99 0 10.98 0 12 0 C12 0.66 12 1.32 12 2 C12.66 2.33 13.32 2.66 14 3 C13.34 3 12.68 3 12 3 C12 4.65 12 6.3 12 8 C11.34 8 10.68 8 10 8 C9.67 7.34 9.34 6.68 9 6 C8.67 6.66 8.34 7.32 8 8 C7.34 8 6.68 8 6 8 C5.67 7.01 5.34 6.02 5 5 C4.01 5.99 3.02 6.98 2 8 C0.74335022 5.09399739 0 3.20395416 0 0 Z " fill="#B7BAC3" transform="translate(402,124)"/>
<path d="M0 0 C2.97 0 5.94 0 9 0 C8.67 0.66 8.34 1.32 8 2 C7.77532169 3.53668865 7.59203195 5.07968054 7.4375 6.625 C7.35371094 7.44226563 7.26992187 8.25953125 7.18359375 9.1015625 C7.12300781 9.72804688 7.06242187 10.35453125 7 11 C5.68 10.67 4.36 10.34 3 10 C3 7.69 3 5.38 3 3 C1.68 3 0.36 3 -1 3 C-0.67 2.01 -0.34 1.02 0 0 Z " fill="#E2B374" transform="translate(118,317)"/>
<path d="M0 0 C2.875 -0.125 2.875 -0.125 6 0 C8.5654594 2.5654594 8.54046087 4.47686668 9 8 C5.7 7.67 2.4 7.34 -1 7 C-0.67 4.69 -0.34 2.38 0 0 Z " fill="#F15C5A" transform="translate(112,61)"/>
<path d="M0 0 C0 0.66 0 1.32 0 2 C0.66 2.33 1.32 2.66 2 3 C2 2.34 2 1.68 2 1 C2.99 1.33 3.98 1.66 5 2 C6.72795352 2.06802967 8.45835365 2.08495645 10.1875 2.0625 C11.08855469 2.05347656 11.98960937 2.04445313 12.91796875 2.03515625 C13.94857422 2.01775391 13.94857422 2.01775391 15 2 C15 2.66 15 3.32 15 4 C5.43 4 -4.14 4 -14 4 C-14.33 3.34 -14.66 2.68 -15 2 C-12.36 1.67 -9.72 1.34 -7 1 C-7 1.66 -7 2.32 -7 3 C-6.01 3 -5.02 3 -4 3 C-4 2.34 -4 1.68 -4 1 C-2 0 -2 0 0 0 Z " fill="#B5BDC1" transform="translate(121,329)"/>
<path d="M0 0 C0.33 0.66 0.66 1.32 1 2 C2.32 2 3.64 2 5 2 C5 1.34 5 0.68 5 0 C5.78375 0.185625 6.5675 0.37125 7.375 0.5625 C9.97089775 1.25962266 9.97089775 1.25962266 12 0 C12 0.66 12 1.32 12 2 C13.98 1.67 15.96 1.34 18 1 C18 1.66 18 2.32 18 3 C8.43 3 -1.14 3 -11 3 C-11.33 2.34 -11.66 1.68 -12 1 C-11.21753906 1.01160156 -10.43507813 1.02320312 -9.62890625 1.03515625 C-8.61699219 1.04417969 -7.60507812 1.05320312 -6.5625 1.0625 C-5.04849609 1.07990234 -5.04849609 1.07990234 -3.50390625 1.09765625 C-1.05978933 1.28612676 -1.05978933 1.28612676 0 0 Z " fill="#B4BCC0" transform="translate(427,70)"/>
<path d="M0 0 C1.65 0.66 3.3 1.32 5 2 C4.01 2.33 3.02 2.66 2 3 C1.34 2.67 0.68 2.34 0 2 C0 2.66 0 3.32 0 4 C0.66 4.33 1.32 4.66 2 5 C1.4225 4.835 0.845 4.67 0.25 4.5 C-2.26664369 3.85537969 -2.26664369 3.85537969 -6 4 C-7.68698082 3.38655243 -9.35965807 2.72904086 -11 2 C-11 2.66 -11 3.32 -11 4 C-10.34 4.33 -9.68 4.66 -9 5 C-11.64 5 -14.28 5 -17 5 C-17 4.34 -17 3.68 -17 3 C-17.99 2.67 -18.98 2.34 -20 2 C-8.30696903 0.92477876 -8.30696903 0.92477876 -3.8125 1 C-2.884375 1 -1.95625 1 -1 1 C-0.67 0.67 -0.34 0.34 0 0 Z " fill="#2D394B" transform="translate(732,67)"/>
<path d="M0 0 C0.33 0 0.66 0 1 0 C1 2.97 1 5.94 1 9 C-1.31 9.33 -3.62 9.66 -6 10 C-6.38133299 8.0085944 -6.71325582 6.00720923 -7 4 C-6 3 -6 3 -3.4375 2.9375 C-2.2309375 2.9684375 -2.2309375 2.9684375 -1 3 C-0.67 2.01 -0.34 1.02 0 0 Z " fill="#9A9898" transform="translate(686,134)"/>
<path d="M0 0 C0.55429687 0.15597656 1.10859375 0.31195313 1.6796875 0.47265625 C2.76636719 0.76462891 2.76636719 0.76462891 3.875 1.0625 C4.59429688 1.25972656 5.31359375 1.45695312 6.0546875 1.66015625 C8.07273593 2.21132607 8.07273593 2.21132607 10 1 C10 1.66 10 2.32 10 3 C10.99 3.33 11.98 3.66 13 4 C4.42 4 -4.16 4 -13 4 C-13 3.34 -13 2.68 -13 2 C-9.535 1.505 -9.535 1.505 -6 1 C-6 1.66 -6 2.32 -6 3 C-4.02 2.67 -2.04 2.34 0 2 C0 1.34 0 0.68 0 0 Z " fill="#B0B9BE" transform="translate(721,69)"/>
<path d="M0 0 C1.98 0 3.96 0 6 0 C6.125 6.75 6.125 6.75 5 9 C3.35 9 1.7 9 0 9 C0.33 8.34 0.66 7.68 1 7 C1.99 7.33 2.98 7.66 4 8 C4 7.34 4 6.68 4 6 C2.35 5.67 0.7 5.34 -1 5 C-0.67 3.35 -0.34 1.7 0 0 Z " fill="#636262" transform="translate(705,137)"/>
<path d="M0 0 C2.3125 -0.25 2.3125 -0.25 5 0 C6.8125 1.75 6.8125 1.75 8 4 C8 5.32 8 6.64 8 8 C5.03 7.67 2.06 7.34 -1 7 C-0.67 4.69 -0.34 2.38 0 0 Z " fill="#F76462" transform="translate(729,61)"/>
<path d="M0 0 C2.3125 -0.25 2.3125 -0.25 5 0 C6.8125 1.75 6.8125 1.75 8 4 C8 5.32 8 6.64 8 8 C5.03 7.67 2.06 7.34 -1 7 C-0.67 4.69 -0.34 2.38 0 0 Z " fill="#F7615E" transform="translate(437,61)"/>
<path d="M0 0 C1.4540625 0.0309375 1.4540625 0.0309375 2.9375 0.0625 C2.9375 2.7025 2.9375 5.3425 2.9375 8.0625 C1.2875 8.3925 -0.3625 8.7225 -2.0625 9.0625 C-2.3925 8.4025 -2.7225 7.7425 -3.0625 7.0625 C-1.7425 7.0625 -0.4225 7.0625 0.9375 7.0625 C-0.3825 6.7325 -1.7025 6.4025 -3.0625 6.0625 C-3.44468767 4.40635343 -3.77645102 2.73792976 -4.0625 1.0625 C-3.0625 0.0625 -3.0625 0.0625 0 0 Z " fill="#636262" transform="translate(110.0625,365.9375)"/>
<path d="M0 0 C0.99 0.99 1.98 1.98 3 3 C3.66 2.01 4.32 1.02 5 0 C5.33 0.99 5.66 1.98 6 3 C7.32 3 8.64 3 10 3 C10 4.65 10 6.3 10 8 C9.05125 7.814375 8.1025 7.62875 7.125 7.4375 C4.10131207 6.71313368 4.10131207 6.71313368 2 8 C0.4375 6.8125 0.4375 6.8125 -1 5 C-0.6875 2.3125 -0.6875 2.3125 0 0 Z " fill="#BBBEC6" transform="translate(453,124)"/>
<path d="M0 0 C0.66 0 1.32 0 2 0 C2 2.64 2 5.28 2 8 C-0.33333333 8 -2.66666667 8 -5 8 C-5.33 8.66 -5.66 9.32 -6 10 C-6 7.36 -6 4.72 -6 2 C-3.525 2.495 -3.525 2.495 -1 3 C-0.67 2.01 -0.34 1.02 0 0 Z " fill="#C6C8CF" transform="translate(94,124)"/>
<path d="M0 0 C2.1519437 3.22791555 2.20086443 4.28400809 2 8 C0.68 8 -0.64 8 -2 8 C-3.34164079 8.2981424 -4.67851173 8.62243192 -6 9 C-6.98120464 5.94736336 -6.98120464 4.05263664 -6 1 C-4.7934375 1.0309375 -4.7934375 1.0309375 -3.5625 1.0625 C-1.06645115 1.29633621 -1.06645115 1.29633621 0 0 Z " fill="#696767" transform="translate(394,104)"/>
<path d="M0 0 C6.93 0 13.86 0 21 0 C20.67 0.66 20.34 1.32 20 2 C18.700625 1.979375 17.40125 1.95875 16.0625 1.9375 C14.70834367 1.91600546 13.35243917 1.92851801 12 2 C11.67 2.33 11.34 2.66 11 3 C11.66 3.33 12.32 3.66 13 4 C13 5.32 13 6.64 13 8 C11.68 8 10.36 8 9 8 C8.34 6.02 7.68 4.04 7 2 C4.69 2 2.38 2 0 2 C0 1.34 0 0.68 0 0 Z " fill="#E2BE89" transform="translate(416,56)"/>
<path d="M0 0 C0.61875 0.165 1.2375 0.33 1.875 0.5 C4.16786836 1.23577017 4.16786836 1.23577017 7 0 C7 1.65 7 3.3 7 5 C7.66 5 8.32 5 9 5 C9 3.35 9 1.7 9 0 C9.33 0 9.66 0 10 0 C10 1.98 10 3.96 10 6 C9.0925 5.814375 8.185 5.62875 7.25 5.4375 C4.31685676 5.04265379 2.7355343 5.05308428 0 6 C-0.38218767 4.34385343 -0.71395102 2.67542976 -1 1 C-0.67 0.67 -0.34 0.34 0 0 Z " fill="#C9CAD1" transform="translate(436,126)"/>
<path d="M0 0 C0 0.66 0 1.32 0 2 C0.66 2.33 1.32 2.66 2 3 C1.4225 2.835 0.845 2.67 0.25 2.5 C-2.26664369 1.85537969 -2.26664369 1.85537969 -6 2 C-6.66 1.67 -7.32 1.34 -8 1 C-8 1.66 -8 2.32 -8 3 C-9.11375 2.7525 -9.11375 2.7525 -10.25 2.5 C-13.19006578 1.88074304 -13.19006578 1.88074304 -17 2 C-17.99 1.34 -18.98 0.68 -20 0 C-13.16920852 -1.18225237 -6.87368733 -0.74464946 0 0 Z " fill="#414F5F" transform="translate(440,69)"/>
<path d="M0 0 C0 0.66 0 1.32 0 2 C0.66 2.33 1.32 2.66 2 3 C2 2.34 2 1.68 2 1 C2.78375 1.185625 3.5675 1.37125 4.375 1.5625 C6.97089775 2.25962266 6.97089775 2.25962266 9 1 C9 1.66 9 2.32 9 3 C9.99 3.33 10.98 3.66 12 4 C4.08 4 -3.84 4 -12 4 C-12.33 3.34 -12.66 2.68 -13 2 C-11.02 1.67 -9.04 1.34 -7 1 C-7 1.66 -7 2.32 -7 3 C-6.01 3 -5.02 3 -4 3 C-4 2.34 -4 1.68 -4 1 C-2 0 -2 0 0 0 Z " fill="#ACB5BA" transform="translate(106,69)"/>
<path d="M0 0 C2.375 -0.125 2.375 -0.125 5 0 C5.66 0.66 6.32 1.32 7 2 C6.625 4.625 6.625 4.625 6 7 C4.35 7 2.7 7 1 7 C0.67 7.66 0.34 8.32 0 9 C0 6.03 0 3.06 0 0 Z " fill="#6B6A6A" transform="translate(433,373)"/>
<path d="M0 0 C2.0625 0.4375 2.0625 0.4375 4 1 C4 2.32 4 3.64 4 5 C4.66 5.33 5.32 5.66 6 6 C6 6.99 6 7.98 6 9 C3.69 9 1.38 9 -1 9 C-1.09765625 2.84765625 -1.09765625 2.84765625 -1 1 C-0.67 0.67 -0.34 0.34 0 0 Z " fill="#595858" transform="translate(150,363)"/>
<path d="M0 0 C2.625 0.375 2.625 0.375 5 1 C6.125 4.75 6.125 4.75 5 7 C3.02 7 1.04 7 -1 7 C-1.625 4.625 -1.625 4.625 -2 2 C-1.34 1.34 -0.68 0.68 0 0 Z " fill="#D5D5DA" transform="translate(47,137)"/>
<path d="M0 0 C1.98 0 3.96 0 6 0 C6.33 1.65 6.66 3.3 7 5 C5.35 5.33 3.7 5.66 2 6 C2 6.99 2 7.98 2 9 C1.34 9 0.68 9 0 9 C0 6.03 0 3.06 0 0 Z " fill="#686767" transform="translate(725,103)"/>
<path d="M0 0 C1.67542976 0.28604898 3.34385343 0.61781233 5 1 C5 4.11257569 4.82638376 6.10765685 4 9 C2.35 8.67 0.7 8.34 -1 8 C-1.04241723 5.66705225 -1.04092937 3.33297433 -1 1 C-0.67 0.67 -0.34 0.34 0 0 Z " fill="#797777" transform="translate(699,374)"/>
<path d="M0 0 C1.65 0 3.3 0 5 0 C5.98120464 3.05263664 5.98120464 4.94736336 5 8 C3.35 8 1.7 8 0 8 C0 5.36 0 2.72 0 0 Z " fill="#C8C9D0" transform="translate(45,124)"/>
<path d="M0 0 C0.33 0 0.66 0 1 0 C1 2.97 1 5.94 1 9 C-1.375 9.125 -1.375 9.125 -4 9 C-4.66 8.34 -5.32 7.68 -6 7 C-5.625 4.875 -5.625 4.875 -5 3 C-3.35 2.67 -1.7 2.34 0 2 C0 1.34 0 0.68 0 0 Z " fill="#6E6D6D" transform="translate(753,119)"/>
<path d="M0 0 C2.97 0.495 2.97 0.495 6 1 C6 2.98 6 4.96 6 7 C4.02 7.33 2.04 7.66 0 8 C0 5.36 0 2.72 0 0 Z " fill="#CCCDD3" transform="translate(387,124)"/>
<path d="M0 0 C0.66 0 1.32 0 2 0 C2 0.99 2 1.98 2 3 C2.66 3 3.32 3 4 3 C4.33 2.01 4.66 1.02 5 0 C5.99 0.66 6.98 1.32 8 2 C8.66 1.34 9.32 0.68 10 0 C9.67 2.31 9.34 4.62 9 7 C8.01 7.33 7.02 7.66 6 8 C5.67 7.01 5.34 6.02 5 5 C4.67 5.99 4.34 6.98 4 8 C3.34 8 2.68 8 2 8 C1.34 5.36 0.68 2.72 0 0 Z " fill="#B7BAC3" transform="translate(139,384)"/>
<path d="M0 0 C3.73487777 0.4979837 5.81237635 0.87491756 9 3 C8.67 4.65 8.34 6.3 8 8 C7.34 8 6.68 8 6 8 C5.67 7.01 5.34 6.02 5 5 C3.68 5 2.36 5 1 5 C0.67 5.99 0.34 6.98 0 8 C0 5.36 0 2.72 0 0 Z " fill="#C7C8CF" transform="translate(45,149)"/>
<path d="M0 0 C1.65 0 3.3 0 5 0 C5.70074844 3.153368 6 5.72724974 6 9 C4 9 4 9 2.375 7.5 C1.92125 7.005 1.4675 6.51 1 6 C0.67 6.99 0.34 7.98 0 9 C0 6.03 0 3.06 0 0 Z " fill="#5D5C5C" transform="translate(662,103)"/>
<path d="M0 0 C2.475 0.495 2.475 0.495 5 1 C5.625 3.375 5.625 3.375 6 6 C5.34 6.66 4.68 7.32 4 8 C2.68 8 1.36 8 0 8 C0 5.36 0 2.72 0 0 Z " fill="#ABB0BA" transform="translate(78,384)"/>
<path d="M0 0 C1.47906892 -0.02689216 2.95827483 -0.04634621 4.4375 -0.0625 C5.26121094 -0.07410156 6.08492187 -0.08570312 6.93359375 -0.09765625 C9 0 9 0 10 1 C10.04080783 2.99958364 10.04254356 5.00045254 10 7 C9.34 7 8.68 7 8 7 C8 5.35 8 3.7 8 2 C7.34 2 6.68 2 6 2 C6 3.65 6 5.3 6 7 C5.34 7 4.68 7 4 7 C4 5.35 4 3.7 4 2 C3.01 2 2.02 2 1 2 C1 3.65 1 5.3 1 7 C0.67 7 0.34 7 0 7 C0 4.69 0 2.38 0 0 Z " fill="#434242" transform="translate(694,121)"/>
<path d="M0 0 C2.0625 0.4375 2.0625 0.4375 4 1 C4 2.98 4 4.96 4 7 C2.1875 7.6875 2.1875 7.6875 0 8 C-1.75 6.5625 -1.75 6.5625 -3 5 C-1.125 1.125 -1.125 1.125 0 0 Z " fill="#828080" transform="translate(743,105)"/>
<path d="M0 0 C0 3.11257569 -0.17361624 5.10765685 -1 8 C-2.65 8 -4.3 8 -6 8 C-6.33 7.34 -6.66 6.68 -7 6 C-4.525 6.495 -4.525 6.495 -2 7 C-3.25541557 4.48916886 -4.50063488 4.12874554 -7 3 C-7 2.01 -7 1.02 -7 0 C-4.3333581 -1.33332095 -2.83319697 -0.67102033 0 0 Z " fill="#454444" transform="translate(52,104)"/>
<path d="M0 0 C1.67542976 0.28604898 3.34385343 0.61781233 5 1 C5.625 2.875 5.625 2.875 6 5 C5.34 5.66 4.68 6.32 4 7 C1.375 6.625 1.375 6.625 -1 6 C-1.042721 4.33388095 -1.04063832 2.66617115 -1 1 C-0.67 0.67 -0.34 0.34 0 0 Z " fill="#797777" transform="translate(486,373)"/>
<path d="M0 0 C1.67542976 0.28604898 3.34385343 0.61781233 5 1 C5 2.65 5 4.3 5 6 C2.625 6.625 2.625 6.625 0 7 C-0.66 6.34 -1.32 5.68 -2 5 C-1.46428571 1.46428571 -1.46428571 1.46428571 0 0 Z " fill="#797777" transform="translate(558,373)"/>
<path d="M0 0 C2.125 0.9375 2.125 0.9375 4 2 C4 3.98 4 5.96 4 8 C2.35 8 0.7 8 -1 8 C-2 3.25 -2 3.25 -2 1 C-1.34 0.67 -0.68 0.34 0 0 Z " fill="#929090" transform="translate(81,365)"/>
<path d="M0 0 C2.31 0 4.62 0 7 0 C8.04449911 3.13349732 7.93423645 3.98968256 7 7 C7.66 7.33 8.32 7.66 9 8 C7.02 8 5.04 8 3 8 C2.690625 7.05125 2.38125 6.1025 2.0625 5.125 C1.12605258 2.13919592 1.12605258 2.13919592 0 0 Z " fill="#AC7C48" transform="translate(416,324)"/>
<path d="M0 0 C0.99 0 1.98 0 3 0 C3.66 2.97 4.32 5.94 5 9 C4.34 9 3.68 9 3 9 C3 8.34 3 7.68 3 7 C1.68 7 0.36 7 -1 7 C-1 7.66 -1 8.32 -1 9 C-1.66 9 -2.32 9 -3 9 C-2.01 6.03 -1.02 3.06 0 0 Z " fill="#6D6C6C" transform="translate(774,119)"/>
<path d="M0 0 C0.598125 0.20625 1.19625 0.4125 1.8125 0.625 C1.8125 2.605 1.8125 4.585 1.8125 6.625 C-0.1675 6.625 -2.1475 6.625 -4.1875 6.625 C-4.5175 4.975 -4.8475 3.325 -5.1875 1.625 C-2.1875 -0.375 -2.1875 -0.375 0 0 Z " fill="#828181" transform="translate(758.1875,105.375)"/>
<path d="M0 0 C3 1 3 1 5 3 C6.32 2.01 7.64 1.02 9 0 C9 2.97 9 5.94 9 9 C8.67 9 8.34 9 8 9 C7.67 7.35 7.34 5.7 7 4 C6.67 4.66 6.34 5.32 6 6 C5.01 5.67 4.02 5.34 3 5 C2.67 6.32 2.34 7.64 2 9 C1.34 9 0.68 9 0 9 C0 6.03 0 3.06 0 0 Z " fill="#323333" transform="translate(77,103)"/>
<path d="M0 0 C0.598125 0.226875 1.19625 0.45375 1.8125 0.6875 C1.8125 2.6675 1.8125 4.6475 1.8125 6.6875 C-0.1675 6.6875 -2.1475 6.6875 -4.1875 6.6875 C-4.875 4.875 -4.875 4.875 -5.1875 2.6875 C-3.58493056 0.24147296 -2.95482043 -0.4221172 0 0 Z " fill="#818080" transform="translate(193.1875,365.3125)"/>
<path d="M0 0 C2.875 -0.125 2.875 -0.125 6 0 C8 2 8 2 8 6 C5.69 6 3.38 6 1 6 C0.67 4.02 0.34 2.04 0 0 Z " fill="#F6B9B8" transform="translate(745,330)"/>
<path d="M0 0 C2.875 -0.125 2.875 -0.125 6 0 C8 2 8 2 8 6 C5.69 6 3.38 6 1 6 C0.67 4.02 0.34 2.04 0 0 Z " fill="#F6B5B4" transform="translate(435,327)"/>
<path d="M0 0 C1.98 0 3.96 0 6 0 C6 0.33 6 0.66 6 1 C4.35 1 2.7 1 1 1 C1 2.32 1 3.64 1 5 C3.64 4.67 6.28 4.34 9 4 C9.33 5.65 9.66 7.3 10 9 C6.7 8.67 3.4 8.34 0 8 C0 5.36 0 2.72 0 0 Z " fill="#F15554" transform="translate(126,320)"/>
<path d="M0 0 C0.86625 0.2784375 0.86625 0.2784375 1.75 0.5625 C4.20692525 1.04023546 5.64397534 0.75729364 8 0 C7.67 1.98 7.34 3.96 7 6 C4.69 6 2.38 6 0 6 C-1.125 2.25 -1.125 2.25 0 0 Z " fill="#C6C8CF" transform="translate(100,126)"/>
<path d="M0 0 C2.97 0 5.94 0 9 0 C8.67 2.97 8.34 5.94 8 9 C7.67 9 7.34 9 7 9 C6.87625 8.030625 6.7525 7.06125 6.625 6.0625 C6.315625 4.5465625 6.315625 4.5465625 6 3 C5.34 2.67 4.68 2.34 4 2 C4 4.64 4 7.28 4 10 C3.34 10 2.68 10 2 10 C2 7.03 2 4.06 2 1 C1.34 0.67 0.68 0.34 0 0 Z " fill="#595858" transform="translate(694,103)"/>
<path d="M0 0 C2.0625 0.4375 2.0625 0.4375 4 1 C4 2.98 4 4.96 4 7 C2.125 7.625 2.125 7.625 0 8 C-0.66 7.34 -1.32 6.68 -2 6 C-1.44444444 1.44444444 -1.44444444 1.44444444 0 0 Z " fill="#94D2D7" transform="translate(758,61)"/>
<path d="M0 0 C2.35953094 2.35953094 2.49141413 3.77895617 3 7 C0 7 -3 7 -6 7 C-6 5.35 -6 3.7 -6 2 C-4.02 1.34 -2.04 0.68 0 0 Z " fill="#C2C4CC" transform="translate(115,385)"/>
<path d="M0 0 C3.3 0 6.6 0 10 0 C10 2.31 10 4.62 10 7 C9.67 7 9.34 7 9 7 C9 5.35 9 3.7 9 2 C8.01 2 7.02 2 6 2 C6 3.65 6 5.3 6 7 C5.67 7 5.34 7 5 7 C4.67 5.35 4.34 3.7 4 2 C3.67 2 3.34 2 3 2 C2.67 3.65 2.34 5.3 2 7 C1.34 7 0.68 7 0 7 C0 4.69 0 2.38 0 0 Z " fill="#484747" transform="translate(504,373)"/>
<path d="M0 0 C1.65 0 3.3 0 5 0 C5.33 1.65 5.66 3.3 6 5 C4.68 5.33 3.36 5.66 2 6 C2 6.99 2 7.98 2 9 C1.34 9 0.68 9 0 9 C0 6.03 0 3.06 0 0 Z " fill="#656464" transform="translate(743,374)"/>
<path d="M0 0 C0.66 0 1.32 0 2 0 C2 1.65 2 3.3 2 5 C4.31 5 6.62 5 9 5 C9.33 4.34 9.66 3.68 10 3 C10 4.65 10 6.3 10 8 C6.7 8 3.4 8 0 8 C0 5.36 0 2.72 0 0 Z " fill="#FB5451" transform="translate(744,331)"/>
<path d="M0 0 C3 1 3 1 4.1875 3.375 C5 6 5 6 5 9 C4.34 9 3.68 9 3 9 C3 8.34 3 7.68 3 7 C1.68 7 0.36 7 -1 7 C-1 7.66 -1 8.32 -1 9 C-1.66 9 -2.32 9 -3 9 C-2.01 6.03 -1.02 3.06 0 0 Z " fill="#373737" transform="translate(734,119)"/>
<path d="M0 0 C2.125 0.375 2.125 0.375 4 1 C5.125 4.75 5.125 4.75 4 7 C2.35 7 0.7 7 -1 7 C-1.625 4.625 -1.625 4.625 -2 2 C-1.34 1.34 -0.68 0.68 0 0 Z " fill="#999696" transform="translate(671,105)"/>
<path d="M0 0 C1.2065625 0.0309375 1.2065625 0.0309375 2.4375 0.0625 C2.81968767 1.71864657 3.15145102 3.38707024 3.4375 5.0625 C2.4375 6.0625 2.4375 6.0625 -0.125 6.125 C-1.3315625 6.0940625 -1.3315625 6.0940625 -2.5625 6.0625 C-2.94468767 4.40635343 -3.27645102 2.73792976 -3.5625 1.0625 C-2.5625 0.0625 -2.5625 0.0625 0 0 Z " fill="#787777" transform="translate(69.5625,365.9375)"/>
<path d="M0 0 C1.2065625 0.0309375 1.2065625 0.0309375 2.4375 0.0625 C2.81968767 1.71864657 3.15145102 3.38707024 3.4375 5.0625 C2.4375 6.0625 2.4375 6.0625 -0.125 6.125 C-1.3315625 6.0940625 -1.3315625 6.0940625 -2.5625 6.0625 C-2.94468767 4.40635343 -3.27645102 2.73792976 -3.5625 1.0625 C-2.5625 0.0625 -2.5625 0.0625 0 0 Z " fill="#797878" transform="translate(101.5625,365.9375)"/>
<path d="M0 0 C0.66 0 1.32 0 2 0 C2 1.65 2 3.3 2 5 C4.31 5 6.62 5 9 5 C9.33 4.34 9.66 3.68 10 3 C10 4.65 10 6.3 10 8 C6.7 8 3.4 8 0 8 C0 5.36 0 2.72 0 0 Z " fill="#FE5350" transform="translate(434,328)"/>
<path d="M0 0 C3.3 0 6.6 0 10 0 C10 0.33 10 0.66 10 1 C8.35 1 6.7 1 5 1 C5 1.66 5 2.32 5 3 C5.66 3 6.32 3 7 3 C7 4.32 7 5.64 7 7 C5.02 7 3.04 7 1 7 C1 6.01 1 5.02 1 4 C1.66 4 2.32 4 3 4 C3 3.34 3 2.68 3 2 C2.01 1.67 1.02 1.34 0 1 C0 0.67 0 0.34 0 0 Z " fill="#DFB476" transform="translate(732,327)"/>
<path d="M0 0 C1.485 0.99 1.485 0.99 3 2 C3.66 1.34 4.32 0.68 5 0 C5.33 1.32 5.66 2.64 6 4 C6.66 4 7.32 4 8 4 C8.33 3.01 8.66 2.02 9 1 C8.67 3.31 8.34 5.62 8 8 C7.34 8 6.68 8 6 8 C5.67 7.34 5.34 6.68 5 6 C4.01 6.66 3.02 7.32 2 8 C0.23537317 4.91190305 0 3.76687864 0 0 Z " fill="#B7BBC3" transform="translate(369,124)"/>
<path d="M0 0 C1.67542976 0.28604898 3.34385343 0.61781233 5 1 C5 2.65 5 4.3 5 6 C3.34385343 6.38218767 1.67542976 6.71395102 0 7 C-1 6 -1 6 -1.125 3.5 C-1 1 -1 1 0 0 Z " fill="#7A7979" transform="translate(672,121)"/>
<path d="M0 0 C0.33 0.99 0.66 1.98 1 3 C1.66 3.66 2.32 4.32 3 5 C-4.75 6.125 -4.75 6.125 -7 5 C-6.67 3.35 -6.34 1.7 -6 0 C-3 -1 -3 -1 0 0 Z " fill="#AD845B" transform="translate(425,64)"/>
<path d="M0 0 C1.47906892 -0.02689216 2.95827483 -0.04634621 4.4375 -0.0625 C5.26121094 -0.07410156 6.08492187 -0.08570313 6.93359375 -0.09765625 C9 0 9 0 10 1 C10.04080783 2.99958364 10.04254356 5.00045254 10 7 C9.34 7 8.68 7 8 7 C8 5.35 8 3.7 8 2 C7.01 2 6.02 2 5 2 C5 3.65 5 5.3 5 7 C4.67 7 4.34 7 4 7 C4 5.35 4 3.7 4 2 C3.01 2 2.02 2 1 2 C1 3.65 1 5.3 1 7 C0.67 7 0.34 7 0 7 C0 4.69 0 2.38 0 0 Z " fill="#2C2D2D" transform="translate(765,376)"/>
<path d="M0 0 C0 0.66 0 1.32 0 2 C-0.66 2 -1.32 2 -2 2 C-2 2.66 -2 3.32 -2 4 C-4.64 4 -7.28 4 -10 4 C-10.33 3.01 -10.66 2.02 -11 1 C-6.92630576 -1.03684712 -4.41062136 -1.0257259 0 0 Z " fill="#494F60" transform="translate(755,339)"/>
<path d="M0 0 C1.98 0 3.96 0 6 0 C6 1.65 6 3.3 6 5 C6.66 5 7.32 5 8 5 C8 3.35 8 1.7 8 0 C8.33 0 8.66 0 9 0 C9 1.98 9 3.96 9 6 C6.03 5.67 3.06 5.34 0 5 C0 3.35 0 1.7 0 0 Z " fill="#D0D1D6" transform="translate(63,151)"/>
<path d="M0 0 C0.33 0.66 0.66 1.32 1 2 C1.66 2 2.32 2 3 2 C3 1.34 3 0.68 3 0 C5.97 0 8.94 0 12 0 C11.01 0.33 10.02 0.66 9 1 C9 1.99 9 2.98 9 4 C9.99 4.33 10.98 4.66 12 5 C9.69 5 7.38 5 5 5 C4.67 4.34 4.34 3.68 4 3 C3.67 3.66 3.34 4.32 3 5 C2.34 5 1.68 5 1 5 C0.67 3.35 0.34 1.7 0 0 Z " fill="#BCBFC7" transform="translate(81,139)"/>
<path d="M0 0 C1.2065625 0.0309375 1.2065625 0.0309375 2.4375 0.0625 C3.5625 3.8125 3.5625 3.8125 2.4375 6.0625 C0.7875 6.0625 -0.8625 6.0625 -2.5625 6.0625 C-2.94468767 4.40635343 -3.27645102 2.73792976 -3.5625 1.0625 C-2.5625 0.0625 -2.5625 0.0625 0 0 Z " fill="#7D7B7B" transform="translate(401.5625,105.9375)"/>
<path d="M0 0 C1.2065625 0.0309375 1.2065625 0.0309375 2.4375 0.0625 C3.5625 3.8125 3.5625 3.8125 2.4375 6.0625 C0.7875 6.0625 -0.8625 6.0625 -2.5625 6.0625 C-2.94468767 4.40635343 -3.27645102 2.73792976 -3.5625 1.0625 C-2.5625 0.0625 -2.5625 0.0625 0 0 Z " fill="#7E7C7C" transform="translate(91.5625,105.9375)"/>
<path d="M0 0 C2.875 -0.1875 2.875 -0.1875 6 0 C6.66 0.99 7.32 1.98 8 3 C8.66 2.34 9.32 1.68 10 1 C9.67 2.98 9.34 4.96 9 7 C8.01 6.67 7.02 6.34 6 6 C5.3125 3.9375 5.3125 3.9375 5 2 C4.01 2 3.02 2 2 2 C2 3.65 2 5.3 2 7 C1.34 7 0.68 7 0 7 C0 4.69 0 2.38 0 0 Z " fill="#565555" transform="translate(435,105)"/>
<path d="M0 0 C1.65 0 3.3 0 5 0 C5.33 1.65 5.66 3.3 6 5 C5.195625 5.12375 4.39125 5.2475 3.5625 5.375 C2.2940625 5.684375 2.2940625 5.684375 1 6 C0.67 6.66 0.34 7.32 0 8 C0 5.36 0 2.72 0 0 Z " fill="#CACBD2" transform="translate(81,126)"/>
<path d="M0 0 C2.0625 0.4375 2.0625 0.4375 4 1 C4 2.98 4 4.96 4 7 C2.0625 7.5625 2.0625 7.5625 0 8 C-1 7 -1 7 -1.125 4 C-1 1 -1 1 0 0 Z " fill="#96D3D8" transform="translate(143,61)"/>
<path d="M0 0 C1.65 0 3.3 0 5 0 C4.67 0.66 4.34 1.32 4 2 C4.66 2.33 5.32 2.66 6 3 C6 4.32 6 5.64 6 7 C4.02 7 2.04 7 0 7 C0 4.69 0 2.38 0 0 Z " fill="#DEB373" transform="translate(423,324)"/>
<path d="M0 0 C2.64 0 5.28 0 8 0 C7.67 1.65 7.34 3.3 7 5 C6.34 5 5.68 5 5 5 C4.67 4.67 4.34 4.34 4 4 C3.67 4.66 3.34 5.32 3 6 C1.68 5.34 0.36 4.68 -1 4 C-0.67 2.68 -0.34 1.36 0 0 Z " fill="#BFC1C9" transform="translate(72,139)"/>
<path d="M0 0 C0.99 1.485 0.99 1.485 2 3 C2.99 2.01 3.98 1.02 5 0 C5.66 0.99 6.32 1.98 7 3 C7.66 2.34 8.32 1.68 9 1 C8.625 3.9375 8.625 3.9375 8 7 C7.01 7.495 7.01 7.495 6 8 C5.34 7.34 4.68 6.68 4 6 C3.34 6.66 2.68 7.32 2 8 C0.23537317 4.91190305 0 3.76687864 0 0 Z " fill="#B2B6BF" transform="translate(60,384)"/>
<path d="M0 0 C1.65 0.33 3.3 0.66 5 1 C5 2.98 5 4.96 5 7 C3.35 7 1.7 7 0 7 C-1.125 2.25 -1.125 2.25 0 0 Z " fill="#585757" transform="translate(777,376)"/>
<path d="M0 0 C1.134375 0.020625 2.26875 0.04125 3.4375 0.0625 C3.4375 1.7125 3.4375 3.3625 3.4375 5.0625 C1.1275 5.0625 -1.1825 5.0625 -3.5625 5.0625 C-4.125 3.125 -4.125 3.125 -4.5625 1.0625 C-3.5625 0.0625 -3.5625 0.0625 0 0 Z " fill="#CECFD5" transform="translate(147.5625,138.9375)"/>
<path d="M0 0 C0.66 0 1.32 0 2 0 C2 2.64 2 5.28 2 8 C0.35 7.67 -1.3 7.34 -3 7 C-3 5.02 -3 3.04 -3 1 C-2.01 1.33 -1.02 1.66 0 2 C0 1.34 0 0.68 0 0 Z " fill="#D0D0D6" transform="translate(172,124)"/>
<path d="M0 0 C2.31 0 4.62 0 7 0 C5.68 0.33 4.36 0.66 3 1 C3.33 2.65 3.66 4.3 4 6 C3.34 6 2.68 6 2 6 C2 6.66 2 7.32 2 8 C2.99 8.33 3.98 8.66 5 9 C2.69 9 0.38 9 -2 9 C-1.34 8.67 -0.68 8.34 0 8 C0 5.36 0 2.72 0 0 Z " fill="#D95855" transform="translate(726,60)"/>
<path d="M0 0 C1.65 0.33 3.3 0.66 5 1 C5 2.98 5 4.96 5 7 C3.02 7 1.04 7 -1 7 C-0.67 5.68 -0.34 4.36 0 3 C0.99 3 1.98 3 3 3 C3 2.34 3 1.68 3 1 C1.68 1.33 0.36 1.66 -1 2 C-0.67 1.34 -0.34 0.68 0 0 Z " fill="#5D5C5C" transform="translate(413,373)"/>
<path d="M0 0 C0.33 0 0.66 0 1 0 C1 2.64 1 5.28 1 8 C2.918125 7.938125 2.918125 7.938125 4.875 7.875 C7.0546875 7.8046875 7.0546875 7.8046875 9 8 C9.66 8.66 10.32 9.32 11 10 C7.77208445 12.1519437 6.71599191 12.20086443 3 12 C3.33 11.34 3.66 10.68 4 10 C2.68 9.67 1.36 9.34 0 9 C0 6.03 0 3.06 0 0 Z " fill="#835560" transform="translate(125,320)"/>
<path d="M0 0 C0.99 0.33 1.98 0.66 3 1 C3 2.98 3 4.96 3 7 C1.68 7.33 0.36 7.66 -1 8 C-2 3.25 -2 3.25 -2 1 C-1.34 0.67 -0.68 0.34 0 0 Z " fill="#6B6A6A" transform="translate(679,105)"/>
<path d="M0 0 C2.0625 0.4375 2.0625 0.4375 4 1 C4 2.98 4 4.96 4 7 C2.02 7 0.04 7 -2 7 C-1.67 5.68 -1.34 4.36 -1 3 C-0.01 3 0.98 3 2 3 C1.01 2.34 0.02 1.68 -1 1 C-0.67 0.67 -0.34 0.34 0 0 Z " fill="#4F4E4E" transform="translate(752,376)"/>
<path d="M0 0 C1.65 0.33 3.3 0.66 5 1 C5 2.98 5 4.96 5 7 C3.35 7 1.7 7 0 7 C0 5.68 0 4.36 0 3 C0.99 3 1.98 3 3 3 C3 2.34 3 1.68 3 1 C1.68 1.33 0.36 1.66 -1 2 C-0.67 1.34 -0.34 0.68 0 0 Z " fill="#535252" transform="translate(542,373)"/>
<path d="M0 0 C1.65 0.33 3.3 0.66 5 1 C5 2.98 5 4.96 5 7 C3.35 7 1.7 7 0 7 C0 5.68 0 4.36 0 3 C0.99 3 1.98 3 3 3 C3 2.34 3 1.68 3 1 C1.68 1.33 0.36 1.66 -1 2 C-0.67 1.34 -0.34 0.68 0 0 Z " fill="#545454" transform="translate(442,373)"/>
<path d="M0 0 C1.67542976 0.28604898 3.34385343 0.61781233 5 1 C5 1.99 5 2.98 5 4 C4.01 4.495 4.01 4.495 3 5 C3.66 5.33 4.32 5.66 5 6 C3.34385343 6.38218767 1.67542976 6.71395102 0 7 C-1 6 -1 6 -1.125 3.5 C-1 1 -1 1 0 0 Z " fill="#4C4B4B" transform="translate(734,376)"/>
<path d="M0 0 C1.67542976 0.28604898 3.34385343 0.61781233 5 1 C5 1.99 5 2.98 5 4 C4.01 4.495 4.01 4.495 3 5 C3.66 5.33 4.32 5.66 5 6 C3.34385343 6.38218767 1.67542976 6.71395102 0 7 C-1 6 -1 6 -1.125 3.5 C-1 1 -1 1 0 0 Z " fill="#4E4E4E" transform="translate(707,376)"/>
<path d="M0 0 C2.0625 0.4375 2.0625 0.4375 4 1 C4 2.98 4 4.96 4 7 C2.35 7 0.7 7 -1 7 C-1 5.68 -1 4.36 -1 3 C-0.01 3 0.98 3 2 3 C1.01 2.34 0.02 1.68 -1 1 C-0.67 0.67 -0.34 0.34 0 0 Z " fill="#4F4E4E" transform="translate(378,373)"/>
<path d="M0 0 C1.67542976 0.28604898 3.34385343 0.61781233 5 1 C5 1.99 5 2.98 5 4 C4.01 4.495 4.01 4.495 3 5 C3.66 5.33 4.32 5.66 5 6 C3.34385343 6.38218767 1.67542976 6.71395102 0 7 C-1 6 -1 6 -1.125 3.5 C-1 1 -1 1 0 0 Z " fill="#4F4E4E" transform="translate(454,373)"/>
<path d="M0 0 C0.66 1.98 1.32 3.96 2 6 C0.35 6.66 -1.3 7.32 -3 8 C-2.67 7.01 -2.34 6.02 -2 5 C-3.32 4.67 -4.64 4.34 -6 4 C-6 3.01 -6 2.02 -6 1 C-3 0 -3 0 0 0 Z " fill="#BE9E7C" transform="translate(429,332)"/>
<path d="M0 0 C0.99 0 1.98 0 3 0 C3.77772405 2.33317216 4.42415568 4.61435923 5 7 C3.02 7 1.04 7 -1 7 C-1.04254356 5.00045254 -1.04080783 2.99958364 -1 1 C-0.67 0.67 -0.34 0.34 0 0 Z " fill="#BABDC5" transform="translate(167,137)"/>
<path d="M0 0 C2.0625 0.1875 2.0625 0.1875 4 1 C4.33 1.99 4.66 2.98 5 4 C3.35 4 1.7 4 0 4 C0 4.66 0 5.32 0 6 C1.32 6.33 2.64 6.66 4 7 C2.35 7 0.7 7 -1 7 C-1.625 4.625 -1.625 4.625 -2 2 C-1.34 1.34 -0.68 0.68 0 0 Z " fill="#5F5E5E" transform="translate(459,105)"/>
<path d="M0 0 C0.66 0.33 1.32 0.66 2 1 C2.625 4.0625 2.625 4.0625 3 7 C1.125 7.625 1.125 7.625 -1 8 C-1.66 7.34 -2.32 6.68 -3 6 C-3 3 -3 3 -1.5 1.3125 C-0.7575 0.6628125 -0.7575 0.6628125 0 0 Z " fill="#AEDDE1" transform="translate(164,321)"/>
<path d="M0 0 C1.32 0 2.64 0 4 0 C4.33 1.65 4.66 3.3 5 5 C3.35 5.33 1.7 5.66 0 6 C-1.125 2.25 -1.125 2.25 0 0 Z " fill="#CBCCD2" transform="translate(395,126)"/>
<path d="M0 0 C2.125 0.375 2.125 0.375 4 1 C4 1.99 4 2.98 4 4 C2.68 4 1.36 4 0 4 C0 4.66 0 5.32 0 6 C1.32 5.67 2.64 5.34 4 5 C4 5.66 4 6.32 4 7 C2.35 7 0.7 7 -1 7 C-1.625 4.625 -1.625 4.625 -2 2 C-1.34 1.34 -0.68 0.68 0 0 Z " fill="#4F4E4E" transform="translate(707,121)"/>
<path d="M0 0 C1.98 0 3.96 0 6 0 C4.68 0.33 3.36 0.66 2 1 C2 1.99 2 2.98 2 4 C3.32 4.33 4.64 4.66 6 5 C4.68 5 3.36 5 2 5 C2 5.99 2 6.98 2 8 C3.32 8.33 4.64 8.66 6 9 C4.02 9 2.04 9 0 9 C0 6.03 0 3.06 0 0 Z " fill="#2E2E2E" transform="translate(758,119)"/>
<path d="M0 0 C2.875 -0.1875 2.875 -0.1875 6 0 C6.66 0.99 7.32 1.98 8 3 C7.34 3 6.68 3 6 3 C6 3.99 6 4.98 6 6 C6.66 6.33 7.32 6.66 8 7 C6.68 7 5.36 7 4 7 C4 5.68 4 4.36 4 3 C2.68 2.67 1.36 2.34 0 2 C0 1.34 0 0.68 0 0 Z " fill="#AE814D" transform="translate(709,57)"/>
<path d="M0 0 C2.125 0.375 2.125 0.375 4 1 C4 1.99 4 2.98 4 4 C2.68 4 1.36 4 0 4 C0 4.66 0 5.32 0 6 C1.32 6.33 2.64 6.66 4 7 C2.35 7 0.7 7 -1 7 C-1.625 4.625 -1.625 4.625 -2 2 C-1.34 1.34 -0.68 0.68 0 0 Z " fill="#575656" transform="translate(717,105)"/>
<path d="M0 0 C2.125 0.375 2.125 0.375 4 1 C4 1.99 4 2.98 4 4 C2.68 4 1.36 4 0 4 C0 4.66 0 5.32 0 6 C1.32 6.33 2.64 6.66 4 7 C2.35 7 0.7 7 -1 7 C-1.625 4.625 -1.625 4.625 -2 2 C-1.34 1.34 -0.68 0.68 0 0 Z " fill="#565656" transform="translate(105,105)"/>
<path d="M0 0 C2.125 0.375 2.125 0.375 4 1 C4 1.99 4 2.98 4 4 C2.68 4 1.36 4 0 4 C0 4.66 0 5.32 0 6 C1.32 6.33 2.64 6.66 4 7 C2.35 7 0.7 7 -1 7 C-1.625 4.625 -1.625 4.625 -2 2 C-1.34 1.34 -0.68 0.68 0 0 Z " fill="#5A5959" transform="translate(69,105)"/>
<path d="M0 0 C1.32 0 2.64 0 4 0 C4 2.64 4 5.28 4 8 C2.68 7.67 1.36 7.34 0 7 C0 4.69 0 2.38 0 0 Z " fill="#E3B776" transform="translate(722,60)"/>
<path d="M0 0 C1.98 0 3.96 0 6 0 C6 0.66 6 1.32 6 2 C5.34 2 4.68 2 4 2 C4 4.64 4 7.28 4 10 C3.34 10 2.68 10 2 10 C2 7.36 2 4.72 2 2 C1.34 2 0.68 2 0 2 C0 1.34 0 0.68 0 0 Z " fill="#5C5B5B" transform="translate(401,370)"/>
<path d="M0 0 C-0.66 1.32 -1.32 2.64 -2 4 C-7.75 4.125 -7.75 4.125 -10 3 C-10 2.34 -10 1.68 -10 1 C-6.59437148 0.22157062 -3.49234244 -0.09978121 0 0 Z " fill="#CEA36E" transform="translate(747,327)"/>
<path d="M0 0 C0.33 1.32 0.66 2.64 1 4 C1.66 4 2.32 4 3 4 C3 2.68 3 1.36 3 0 C4.65 0 6.3 0 8 0 C7.67 1.65 7.34 3.3 7 5 C4.69 5 2.38 5 0 5 C0 3.35 0 1.7 0 0 Z " fill="#BABDC6" transform="translate(54,139)"/>
<path d="M0 0 C1.98 0 3.96 0 6 0 C6 0.66 6 1.32 6 2 C5.34 2 4.68 2 4 2 C4 4.64 4 7.28 4 10 C3.34 10 2.68 10 2 10 C2 7.36 2 4.72 2 2 C1.34 2 0.68 2 0 2 C0 1.34 0 0.68 0 0 Z " fill="#545353" transform="translate(661,134)"/>
<path d="M0 0 C2.0625 0.4375 2.0625 0.4375 4 1 C4 2.32 4 3.64 4 5 C2.68 5.33 1.36 5.66 0 6 C-0.38218767 4.34385343 -0.71395102 2.67542976 -1 1 C-0.67 0.67 -0.34 0.34 0 0 Z " fill="#CBCBD2" transform="translate(163,126)"/>
<path d="M0 0 C1.98 0 3.96 0 6 0 C6.33 1.32 6.66 2.64 7 4 C4.69 4 2.38 4 0 4 C0 2.68 0 1.36 0 0 Z " fill="#F3D2D2" transform="translate(127,321)"/>
<path d="M0 0 C0 1.32 0 2.64 0 4 C-1.875 4.625 -1.875 4.625 -4 5 C-4.66 4.34 -5.32 3.68 -6 3 C-6 2.01 -6 1.02 -6 0 C-3.50907189 -1.24546405 -2.58919267 -0.7767578 0 0 Z " fill="#FDDCD8" transform="translate(771,298)"/>
<path d="M0 0 C1.98 0.495 1.98 0.495 4 1 C4 2.65 4 4.3 4 6 C2.35 5.67 0.7 5.34 -1 5 C-0.67 3.35 -0.34 1.7 0 0 Z " fill="#C3C5CC" transform="translate(93,151)"/>
<path d="M0 0 C0.99 0 1.98 0 3 0 C3.33 1.65 3.66 3.3 4 5 C2.68 5.33 1.36 5.66 0 6 C-0.66 4.68 -1.32 3.36 -2 2 C-1.34 1.34 -0.68 0.68 0 0 Z " fill="#FFDFDB" transform="translate(652,145)"/>
<path d="M0 0 C1.65 0 3.3 0 5 0 C5 1.98 5 3.96 5 6 C3.35 5.67 1.7 5.34 0 5 C-0.33 4.01 -0.66 3.02 -1 2 C-0.67 1.34 -0.34 0.68 0 0 Z " fill="#C4C6CD" transform="translate(158,139)"/>
<path d="M0 0 C0.66 0 1.32 0 2 0 C2 0.99 2 1.98 2 3 C3.32 3 4.64 3 6 3 C6 4.98 6 6.96 6 9 C5.67 9 5.34 9 5 9 C5 7.35 5 5.7 5 4 C4.01 4 3.02 4 2 4 C2 5.65 2 7.3 2 9 C1.34 9 0.68 9 0 9 C0 6.03 0 3.06 0 0 Z " fill="#454444" transform="translate(733,103)"/>
<path d="M0 0 C1.98 0.495 1.98 0.495 4 1 C3.67 2.65 3.34 4.3 3 6 C1.68 5.67 0.36 5.34 -1 5 C-0.67 3.35 -0.34 1.7 0 0 Z " fill="#C4C6CD" transform="translate(71,386)"/>
<path d="M0 0 C1.98 0.495 1.98 0.495 4 1 C3.67 2.65 3.34 4.3 3 6 C1.68 5.67 0.36 5.34 -1 5 C-0.67 3.35 -0.34 1.7 0 0 Z " fill="#C9CAD0" transform="translate(86,386)"/>
<path d="M0 0 C1.98 0.495 1.98 0.495 4 1 C3.67 2.65 3.34 4.3 3 6 C1.68 5.67 0.36 5.34 -1 5 C-0.67 3.35 -0.34 1.7 0 0 Z " fill="#C7C8CF" transform="translate(127,386)"/>
<path d="M0 0 C1.66611905 -0.042721 3.33382885 -0.04063832 5 0 C6 1 6 1 6.0625 4.0625 C6.041875 5.031875 6.02125 6.00125 6 7 C5.34 7 4.68 7 4 7 C4 5.35 4 3.7 4 2 C3.01 2 2.02 2 1 2 C1 3.65 1 5.3 1 7 C0.67 7 0.34 7 0 7 C0 4.69 0 2.38 0 0 Z " fill="#464545" transform="translate(784,376)"/>
<path d="M0 0 C0.33 0 0.66 0 1 0 C1 1.65 1 3.3 1 5 C1.99 5 2.98 5 4 5 C4 3.35 4 1.7 4 0 C4.66 0 5.32 0 6 0 C6 2.31 6 4.62 6 7 C4.33388095 7.042721 2.66617115 7.04063832 1 7 C0 6 0 6 -0.0625 2.9375 C-0.041875 1.968125 -0.02125 0.99875 0 0 Z " fill="#444444" transform="translate(516,373)"/>
<path d="M0 0 C2.97 0 5.94 0 9 0 C8.01 1.485 8.01 1.485 7 3 C5.0546875 3.29296875 5.0546875 3.29296875 2.875 3.1875 C1.59625 3.125625 0.3175 3.06375 -1 3 C-0.67 2.01 -0.34 1.02 0 0 Z " fill="#CC9F66" transform="translate(118,317)"/>
<path d="M0 0 C1.98 0.495 1.98 0.495 4 1 C3.67 2.65 3.34 4.3 3 6 C1.68 5.67 0.36 5.34 -1 5 C-0.67 3.35 -0.34 1.7 0 0 Z " fill="#C0C2CA" transform="translate(78,151)"/>
<path d="M0 0 C1.65 0.33 3.3 0.66 5 1 C5 2.98 5 4.96 5 7 C3.35 7 1.7 7 0 7 C-0.33 5.68 -0.66 4.36 -1 3 C0.98 3.99 0.98 3.99 3 5 C3 3.68 3 2.36 3 1 C2.01 0.67 1.02 0.34 0 0 Z " fill="#504F4F" transform="translate(673,137)"/>
<path d="M0 0 C1.98 0.495 1.98 0.495 4 1 C4 2.65 4 4.3 4 6 C2.35 5.67 0.7 5.34 -1 5 C-0.67 3.35 -0.34 1.7 0 0 Z " fill="#C4C6CD" transform="translate(419,126)"/>
<path d="M0 0 C1.98 0.495 1.98 0.495 4 1 C3.67 2.65 3.34 4.3 3 6 C1.68 5.67 0.36 5.34 -1 5 C-0.67 3.35 -0.34 1.7 0 0 Z " fill="#C1C3CA" transform="translate(380,126)"/>
<path d="M0 0 C1.98 0.495 1.98 0.495 4 1 C3.67 2.65 3.34 4.3 3 6 C1.68 5.67 0.36 5.34 -1 5 C-0.67 3.35 -0.34 1.7 0 0 Z " fill="#C0C2CA" transform="translate(130,126)"/>
<path d="M0 0 C1.98 0.495 1.98 0.495 4 1 C3.67 2.65 3.34 4.3 3 6 C1.68 5.67 0.36 5.34 -1 5 C-0.67 3.35 -0.34 1.7 0 0 Z " fill="#BFC1C9" transform="translate(53,126)"/>
<path d="M0 0 C3.125 0.375 3.125 0.375 6 1 C5.67 2.32 5.34 3.64 5 5 C2.525 4.01 2.525 4.01 0 3 C0 3.66 0 4.32 0 5 C0.99 4.67 1.98 4.34 3 4 C3 4.66 3 5.32 3 6 C1.68 6 0.36 6 -1 6 C-1.625 4.125 -1.625 4.125 -2 2 C-1.34 1.34 -0.68 0.68 0 0 Z " fill="#B9BCC5" transform="translate(151,126)"/>
<path d="M0 0 C2.475 0.495 2.475 0.495 5 1 C4.67 2.32 4.34 3.64 4 5 C3.01 5 2.02 5 1 5 C0.67 5.99 0.34 6.98 0 8 C0 5.36 0 2.72 0 0 Z " fill="#BDBFC7" transform="translate(111,124)"/>
<path d="M0 0 C1.66611905 -0.042721 3.33382885 -0.04063832 5 0 C6 1 6 1 6.0625 4.0625 C6.041875 5.031875 6.02125 6.00125 6 7 C5.67 7 5.34 7 5 7 C5 5.35 5 3.7 5 2 C4.01 2 3.02 2 2 2 C2 3.65 2 5.3 2 7 C1.34 7 0.68 7 0 7 C0 4.69 0 2.38 0 0 Z " fill="#484848" transform="translate(740,121)"/>
<path d="M0 0 C0.66 0 1.32 0 2 0 C2 2.64 2 5.28 2 8 C1.34 8 0.68 8 0 8 C0 6.68 0 5.36 0 4 C-0.66 4 -1.32 4 -2 4 C-2.33 5.32 -2.66 6.64 -3 8 C-3 6.02 -3 4.04 -3 2 C-2.01 2 -1.02 2 0 2 C0 1.34 0 0.68 0 0 Z " fill="#C8C9CF" transform="translate(120,124)"/>
<path d="M0 0 C-0.99 0.33 -1.98 0.66 -3 1 C-3.66 0.67 -4.32 0.34 -5 0 C-5 0.66 -5 1.32 -5 2 C-4.34 2.33 -3.68 2.66 -3 3 C-3.5775 2.835 -4.155 2.67 -4.75 2.5 C-7.26664369 1.85537969 -7.26664369 1.85537969 -11 2 C-11.99 1.34 -12.98 0.68 -14 0 C-8.97874074 -0.77916092 -5.02296004 -1.13016601 0 0 Z " fill="#25374B" transform="translate(121,69)"/>
<path d="M0 0 C1.98 0.495 1.98 0.495 4 1 C4 2.65 4 4.3 4 6 C2.35 5.67 0.7 5.34 -1 5 C-0.67 3.35 -0.34 1.7 0 0 Z " fill="#C1C3CB" transform="translate(150,386)"/>
<path d="M0 0 C1.66611905 -0.042721 3.33382885 -0.04063832 5 0 C6 1 6 1 6.0625 4.0625 C6.041875 5.031875 6.02125 6.00125 6 7 C5.67 7 5.34 7 5 7 C4.67 5.35 4.34 3.7 4 2 C3.67 2 3.34 2 3 2 C2.67 3.65 2.34 5.3 2 7 C1.34 7 0.68 7 0 7 C0 4.69 0 2.38 0 0 Z " fill="#464545" transform="translate(523,373)"/>
<path d="M0 0 C1.32 0.33 2.64 0.66 4 1 C3.67 1.33 3.34 1.66 3 2 C3.66 2.33 4.32 2.66 5 3 C4.67 4.32 4.34 5.64 4 7 C2.68 6.67 1.36 6.34 0 6 C0 4.02 0 2.04 0 0 Z " fill="#626161" transform="translate(140,366)"/>
<path d="M0 0 C1.98 0 3.96 0 6 0 C6.33 1.32 6.66 2.64 7 4 C4.69 4 2.38 4 0 4 C0 2.68 0 1.36 0 0 Z " fill="#C28B58" transform="translate(110,324)"/>
<path d="M0 0 C1.66611905 -0.042721 3.33382885 -0.04063832 5 0 C6 1 6 1 6.0625 4.0625 C6.041875 5.031875 6.02125 6.00125 6 7 C5.34 7 4.68 7 4 7 C4 5.35 4 3.7 4 2 C3.01 2 2.02 2 1 2 C1 3.65 1 5.3 1 7 C0.67 7 0.34 7 0 7 C0 4.69 0 2.38 0 0 Z " fill="#484747" transform="translate(713,121)"/>
<path d="M0 0 C1.65 0.33 3.3 0.66 5 1 C5 2.65 5 4.3 5 6 C4.01 5.67 3.02 5.34 2 5 C1.67 5.33 1.34 5.66 1 6 C0.34 6 -0.32 6 -1 6 C-1 5.01 -1 4.02 -1 3 C-0.34 2.67 0.32 2.34 1 2 C0.67 1.34 0.34 0.68 0 0 Z " fill="#464646" transform="translate(54,106)"/>
<path d="M0 0 C-0.33 1.32 -0.66 2.64 -1 4 C-2.65 3.67 -4.3 3.34 -6 3 C-6 2.01 -6 1.02 -6 0 C-3.50907189 -1.24546405 -2.58919267 -0.7767578 0 0 Z " fill="#FFE5E3" transform="translate(501,80)"/>
<path d="M0 0 C1.98 0 3.96 0 6 0 C6 0.66 6 1.32 6 2 C5.34 2 4.68 2 4 2 C4 4.31 4 6.62 4 9 C3.34 9 2.68 9 2 9 C2 6.36 2 3.72 2 1 C1.34 0.67 0.68 0.34 0 0 Z " fill="#444444" transform="translate(60,363)"/>
<path d="M0 0 C1.65 0.33 3.3 0.66 5 1 C4.67 2.32 4.34 3.64 4 5 C2.35 4.67 0.7 4.34 -1 4 C-0.67 2.68 -0.34 1.36 0 0 Z " fill="#FCE0DD" transform="translate(698,321)"/>
<path d="M0 0 C1.9453125 -0.29296875 1.9453125 -0.29296875 4.125 -0.1875 C5.40375 -0.125625 6.6825 -0.06375 8 0 C7.01 1.485 7.01 1.485 6 3 C4.0546875 3.29296875 4.0546875 3.29296875 1.875 3.1875 C0.59625 3.125625 -0.6825 3.06375 -2 3 C-1.34 2.01 -0.68 1.02 0 0 Z " fill="#CA9E65" transform="translate(104,57)"/>
<path d="M0 0 C2.475 0.495 2.475 0.495 5 1 C4.67 2.32 4.34 3.64 4 5 C2.68 5 1.36 5 0 5 C0 3.35 0 1.7 0 0 Z " fill="#FFEFEE" transform="translate(719,153)"/>
<path d="M0 0 C0.99 0.495 0.99 0.495 2 1 C2 1.66 2 2.32 2 3 C2.66 3 3.32 3 4 3 C4 2.01 4 1.02 4 0 C4.66 0.33 5.32 0.66 6 1 C4.68 3.64 3.36 6.28 2 9 C1.34 8.67 0.68 8.34 0 8 C0.33 7.01 0.66 6.02 1 5 C0.60602665 2.36195411 0.60602665 2.36195411 0 0 Z " fill="#3D3D3D" transform="translate(111,106)"/>
<path d="M0 0 C1.2065625 0.0309375 1.2065625 0.0309375 2.4375 0.0625 C2.4375 0.7225 2.4375 1.3825 2.4375 2.0625 C1.1175 2.0625 -0.2025 2.0625 -1.5625 2.0625 C-1.5625 2.7225 -1.5625 3.3825 -1.5625 4.0625 C-0.2425 4.0625 1.0775 4.0625 2.4375 4.0625 C2.1075 5.0525 1.7775 6.0425 1.4375 7.0625 C0.1175 6.7325 -1.2025 6.4025 -2.5625 6.0625 C-2.94468767 4.40635343 -3.27645102 2.73792976 -3.5625 1.0625 C-2.5625 0.0625 -2.5625 0.0625 0 0 Z " fill="#4F4F4F" transform="translate(453.5625,105.9375)"/>
<path d="M0 0 C1.65 0 3.3 0 5 0 C4.67 1.65 4.34 3.3 4 5 C2.68 4.67 1.36 4.34 0 4 C0 2.68 0 1.36 0 0 Z " fill="#FFEFEE" transform="translate(184,99)"/>
<path d="M0 0 C1.65 0 3.3 0 5 0 C5.66 1.32 6.32 2.64 7 4 C4.69 4 2.38 4 0 4 C0 2.68 0 1.36 0 0 Z " fill="#F2E2E2" transform="translate(112,61)"/>
<path d="M0 0 C1.65 0 3.3 0 5 0 C4.67 1.65 4.34 3.3 4 5 C2.68 4.67 1.36 4.34 0 4 C0 2.68 0 1.36 0 0 Z " fill="#F3E5E4" transform="translate(387,47)"/>
<path d="M0 0 C1.32 0 2.64 0 4 0 C3.67 1.65 3.34 3.3 3 5 C1.68 4.67 0.36 4.34 -1 4 C-0.67 2.68 -0.34 1.36 0 0 Z " fill="#F4EBEA" transform="translate(186,312)"/>
<path d="M0 0 C3.63 0.33 7.26 0.66 11 1 C11 1.66 11 2.32 11 3 C11.66 3.33 12.32 3.66 13 4 C12.4225 3.835 11.845 3.67 11.25 3.5 C8.73335631 2.85537969 8.73335631 2.85537969 5 3 C3.31301918 2.38655243 1.64034193 1.72904086 0 1 C0 0.67 0 0.34 0 0 Z " fill="#223549" transform="translate(429,68)"/>
<path d="M0 0 C0.33 1.32 0.66 2.64 1 4 C-0.65 4.33 -2.3 4.66 -4 5 C-4.33 3.68 -4.66 2.36 -5 1 C-3.35 0.67 -1.7 0.34 0 0 Z " fill="#EBE6E6" transform="translate(720,377)"/>
<path d="M0 0 C2.97 0.495 2.97 0.495 6 1 C6 2.32 6 3.64 6 5 C4.35 4.67 2.7 4.34 1 4 C0.67 2.68 0.34 1.36 0 0 Z " fill="#6E6C7A" transform="translate(439,335)"/>
<path d="M0 0 C3.375 -0.1875 3.375 -0.1875 7 0 C7.66 0.99 8.32 1.98 9 3 C5.625 3.1875 5.625 3.1875 2 3 C1.34 2.01 0.68 1.02 0 0 Z " fill="#AB7E4A" transform="translate(107,317)"/>
<path d="M0 0 C0.66 0 1.32 0 2 0 C2 1.65 2 3.3 2 5 C2.66 5 3.32 5 4 5 C4 3.35 4 1.7 4 0 C4.33 0 4.66 0 5 0 C5 1.98 5 3.96 5 6 C3.35 5.67 1.7 5.34 0 5 C-0.33 4.01 -0.66 3.02 -1 2 C-0.67 1.34 -0.34 0.68 0 0 Z " fill="#BCBFC7" transform="translate(441,126)"/>
<path d="M0 0 C-0.66 0.66 -1.32 1.32 -2 2 C-2.99 2 -3.98 2 -5 2 C-5 1.34 -5 0.68 -5 0 C-7.64 0 -10.28 0 -13 0 C-13 -0.33 -13 -0.66 -13 -1 C-4.57142857 -2.42857143 -4.57142857 -2.42857143 0 0 Z " fill="#795E66" transform="translate(445,69)"/>
<path d="M0 0 C1.65 0 3.3 0 5 0 C4.67 0.66 4.34 1.32 4 2 C4.66 2.33 5.32 2.66 6 3 C6 3.99 6 4.98 6 6 C4.68 6 3.36 6 2 6 C1.34 4.02 0.68 2.04 0 0 Z " fill="#E5BA79" transform="translate(99,57)"/>
<path d="M0 0 C2.31 0 4.62 0 7 0 C6.01 0.33 5.02 0.66 4 1 C4.33 2.98 4.66 4.96 5 7 C4.34 7 3.68 7 3 7 C2.690625 6.21625 2.38125 5.4325 2.0625 4.625 C1.07124962 2.07669872 1.07124962 2.07669872 0 0 Z " fill="#BA8E59" transform="translate(416,324)"/>
<path d="M0 0 C0.33 0.99 0.66 1.98 1 3 C2.32 2.67 3.64 2.34 5 2 C5.33 3.32 5.66 4.64 6 6 C5.34 6 4.68 6 4 6 C4 5.34 4 4.68 4 4 C2.68 4 1.36 4 0 4 C0 4.66 0 5.32 0 6 C-0.66 6 -1.32 6 -2 6 C-1.34 4.02 -0.68 2.04 0 0 Z " fill="#3A3A3A" transform="translate(773,122)"/>
<path d="M0 0 C0.66 0 1.32 0 2 0 C2 0.99 2 1.98 2 3 C2.66 3 3.32 3 4 3 C4 2.01 4 1.02 4 0 C4.66 0 5.32 0 6 0 C5.34 1.98 4.68 3.96 4 6 C3.01 5.67 2.02 5.34 1 5 C0.67 3.35 0.34 1.7 0 0 Z " fill="#484747" transform="translate(60,106)"/>
<path d="M0 0 C2.875 -0.1875 2.875 -0.1875 6 0 C6.66 0.99 7.32 1.98 8 3 C5.69 3 3.38 3 1 3 C0.67 2.01 0.34 1.02 0 0 Z " fill="#AA7E4C" transform="translate(417,57)"/>
<path d="M0 0 C2.31 0 4.62 0 7 0 C7.33 0.99 7.66 1.98 8 3 C5.125 3.1875 5.125 3.1875 2 3 C1.34 2.01 0.68 1.02 0 0 Z " fill="#AA7E4B" transform="translate(92,57)"/>
<path d="M0 0 C0.66 0 1.32 0 2 0 C2 0.99 2 1.98 2 3 C2.99 3.33 3.98 3.66 5 4 C4.67 5.32 4.34 6.64 4 8 C3.34 8 2.68 8 2 8 C1.34 5.36 0.68 2.72 0 0 Z " fill="#C2C4CB" transform="translate(139,384)"/>
<path d="M0 0 C1.98 0.99 1.98 0.99 4 2 C4 2.99 4 3.98 4 5 C2.68 5.33 1.36 5.66 0 6 C0 4.02 0 2.04 0 0 Z " fill="#F7F3F4" transform="translate(79,385)"/>
<path d="M0 0 C0.99 0.33 1.98 0.66 3 1 C3 3.31 3 5.62 3 8 C2.01 7.67 1.02 7.34 0 7 C-0.38133299 5.0085944 -0.71325582 3.00720923 -1 1 C-0.67 0.67 -0.34 0.34 0 0 Z " fill="#515151" transform="translate(792,375)"/>
<path d="M0 0 C0 2.97 0 5.94 0 9 C-2 6 -2 6 -2 3 C-2.99 3 -3.98 3 -5 3 C-5 2.34 -5 1.68 -5 1 C-1.125 0 -1.125 0 0 0 Z " fill="#D4D1D1" transform="translate(433,373)"/>
<path d="M0 0 C0.66 0 1.32 0 2 0 C2 2.31 2 4.62 2 7 C0.35 6.67 -1.3 6.34 -3 6 C-2.67 5.34 -2.34 4.68 -2 4 C-1.34 4.33 -0.68 4.66 0 5 C-0.2784375 4.0409375 -0.2784375 4.0409375 -0.5625 3.0625 C-0.706875 2.381875 -0.85125 1.70125 -1 1 C-0.67 0.67 -0.34 0.34 0 0 Z " fill="#BDE3E6" transform="translate(784,332)"/>
<path d="M0 0 C1.98 0.495 1.98 0.495 4 1 C3.67 2.32 3.34 3.64 3 5 C1.68 4.67 0.36 4.34 -1 4 C-0.67 2.68 -0.34 1.36 0 0 Z " fill="#FEF6F6" transform="translate(498,328)"/>
<path d="M0 0 C1.32 0.33 2.64 0.66 4 1 C3.67 1.66 3.34 2.32 3 3 C3.99 3 4.98 3 6 3 C6 3.99 6 4.98 6 6 C4.68 6 3.36 6 2 6 C1.34 4.02 0.68 2.04 0 0 Z " fill="#E6BC79" transform="translate(114,317)"/>
<path d="M0 0 C2.475 0.495 2.475 0.495 5 1 C4.67 2.32 4.34 3.64 4 5 C2.68 5 1.36 5 0 5 C0 3.35 0 1.7 0 0 Z " fill="#B6BAC3" transform="translate(95,139)"/>
<path d="M0 0 C1.98 0.495 1.98 0.495 4 1 C3.01 1.495 3.01 1.495 2 2 C2 2.66 2 3.32 2 4 C2.66 4 3.32 4 4 4 C3.67 4.99 3.34 5.98 3 7 C3 6.34 3 5.68 3 5 C1.68 4.67 0.36 4.34 -1 4 C-0.67 2.68 -0.34 1.36 0 0 Z " fill="#BDC0C8" transform="translate(70,124)"/>
<path d="M0 0 C0.99 0.33 1.98 0.66 3 1 C3.6875 3.0625 3.6875 3.0625 4 5 C3.01 5.495 3.01 5.495 2 6 C1.01 5.67 0.02 5.34 -1 5 C-0.67 3.35 -0.34 1.7 0 0 Z " fill="#51B6BF" transform="translate(763,62)"/>
<path d="M0 0 C1.32 0 2.64 0 4 0 C4.66 1.32 5.32 2.64 6 4 C4.02 4 2.04 4 0 4 C0 2.68 0 1.36 0 0 Z " fill="#F1EDED" transform="translate(729,61)"/>
<path d="M0 0 C1.32 0 2.64 0 4 0 C4.66 1.32 5.32 2.64 6 4 C4.02 4 2.04 4 0 4 C0 2.68 0 1.36 0 0 Z " fill="#F1EFEE" transform="translate(437,61)"/>
<path d="M0 0 C0.33 0 0.66 0 1 0 C1 2.31 1 4.62 1 7 C-1.31 6.34 -3.62 5.68 -6 5 C-6 4.67 -6 4.34 -6 4 C-4.35 4 -2.7 4 -1 4 C-0.67 2.68 -0.34 1.36 0 0 Z " fill="#D3CFCF" transform="translate(460,373)"/>
<path d="M0 0 C1.32 0 2.64 0 4 0 C4 0.66 4 1.32 4 2 C3.34 2 2.68 2 2 2 C2 3.65 2 5.3 2 7 C1.34 7 0.68 7 0 7 C0 4.69 0 2.38 0 0 Z " fill="#616060" transform="translate(728,376)"/>
<path d="M0 0 C1.32 0 2.64 0 4 0 C4 0.66 4 1.32 4 2 C3.34 2 2.68 2 2 2 C2 3.65 2 5.3 2 7 C1.34 7 0.68 7 0 7 C0 4.69 0 2.38 0 0 Z " fill="#616060" transform="translate(407,373)"/>
<path d="M0 0 C0.99 0.33 1.98 0.66 3 1 C3 3.31 3 5.62 3 8 C2.01 7.67 1.02 7.34 0 7 C-0.38133299 5.0085944 -0.71325582 3.00720923 -1 1 C-0.67 0.67 -0.34 0.34 0 0 Z " fill="#3E3E3E" transform="translate(549,372)"/>
<path d="M0 0 C1.32 0.66 2.64 1.32 4 2 C4 3.65 4 5.3 4 7 C3.01 6.67 2.02 6.34 1 6 C1 5.01 1 4.02 1 3 C0.34 2.34 -0.32 1.68 -1 1 C-0.67 0.67 -0.34 0.34 0 0 Z " fill="#434242" transform="translate(81,365)"/>
<path d="M0 0 C0.66 0 1.32 0 2 0 C2.33 2.31 2.66 4.62 3 7 C2.01 7 1.02 7 0 7 C-1.125 2.25 -1.125 2.25 0 0 Z " fill="#464646" transform="translate(184,364)"/>
<path d="M0 0 C0.66 0 1.32 0 2 0 C2 1.65 2 3.3 2 5 C2.66 5.33 3.32 5.66 4 6 C3.34 6 2.68 6 2 6 C2 6.66 2 7.32 2 8 C1.34 8 0.68 8 0 8 C0 5.36 0 2.72 0 0 Z " fill="#DD4542" transform="translate(744,331)"/>
<path d="M0 0 C0.66 0 1.32 0 2 0 C2 1.65 2 3.3 2 5 C2.66 5.33 3.32 5.66 4 6 C3.34 6 2.68 6 2 6 C2 6.66 2 7.32 2 8 C1.34 8 0.68 8 0 8 C0 5.36 0 2.72 0 0 Z " fill="#DE4542" transform="translate(434,328)"/>
<path d="M0 0 C2.875 -0.1875 2.875 -0.1875 6 0 C6.66 0.99 7.32 1.98 8 3 C5.125 3.1875 5.125 3.1875 2 3 C1.34 2.01 0.68 1.02 0 0 Z " fill="#AB7F4C" transform="translate(726,327)"/>
<path d="M0 0 C0.66 0 1.32 0 2 0 C2 0.66 2 1.32 2 2 C2.66 2.33 3.32 2.66 4 3 C3.34 3 2.68 3 2 3 C2 4.65 2 6.3 2 8 C1.34 8 0.68 8 0 8 C0 5.36 0 2.72 0 0 Z " fill="#C8CAD0" transform="translate(412,124)"/>
<path d="M0 0 C0.99 0.33 1.98 0.66 3 1 C3 3.31 3 5.62 3 8 C2.01 7.67 1.02 7.34 0 7 C-0.38133299 5.0085944 -0.71325582 3.00720923 -1 1 C-0.67 0.67 -0.34 0.34 0 0 Z " fill="#454444" transform="translate(721,120)"/>
<path d="M0 0 C0.66 0 1.32 0 2 0 C2.33 2.31 2.66 4.62 3 7 C2.01 7 1.02 7 0 7 C-1.125 2.25 -1.125 2.25 0 0 Z " fill="#3F3F3F" transform="translate(749,104)"/>
<path d="M0 0 C2.475 0.495 2.475 0.495 5 1 C4.67 1.99 4.34 2.98 4 4 C2.68 4 1.36 4 0 4 C0 2.68 0 1.36 0 0 Z " fill="#A19E9E" transform="translate(47,103)"/>
<path d="M0 0 C1.32 0.33 2.64 0.66 4 1 C4 2.98 4 4.96 4 7 C3.34 7 2.68 7 2 7 C2 5.35 2 3.7 2 2 C1.34 2 0.68 2 0 2 C0 1.34 0 0.68 0 0 Z " fill="#545353" transform="translate(771,376)"/>
<path d="M0 0 C1.32 0.33 2.64 0.66 4 1 C3.34 2.98 2.68 4.96 2 7 C1.34 7 0.68 7 0 7 C0 4.69 0 2.38 0 0 Z " fill="#5A5A5A" transform="translate(448,373)"/>
<path d="M0 0 C2.64 0 5.28 0 8 0 C7.34 1.32 6.68 2.64 6 4 C5.01 3.67 4.02 3.34 3 3 C3 2.34 3 1.68 3 1 C2.01 0.67 1.02 0.34 0 0 Z " fill="#2F414C" transform="translate(420,336)"/>
<path d="M0 0 C0.66 0.33 1.32 0.66 2 1 C1.67 2.32 1.34 3.64 1 5 C-0.32 4.67 -1.64 4.34 -3 4 C-3 3.01 -3 2.02 -3 1 C-2.01 0.67 -1.02 0.34 0 0 Z " fill="#F1EEEF" transform="translate(93,139)"/>
<path d="M0 0 C2 0 2 0 3.625 1.3125 C5 3 5 3 5 6 C4.34 6 3.68 6 3 6 C3 5.34 3 4.68 3 4 C1.68 3.67 0.36 3.34 -1 3 C-0.67 2.01 -0.34 1.02 0 0 Z " fill="#716F6F" transform="translate(734,122)"/>
<path d="M0 0 C1.32 0.33 2.64 0.66 4 1 C4 2.98 4 4.96 4 7 C3.34 7 2.68 7 2 7 C2 5.35 2 3.7 2 2 C1.34 2 0.68 2 0 2 C0 1.34 0 0.68 0 0 Z " fill="#5B5959" transform="translate(700,121)"/>
<path d="M0 0 C0.66 0 1.32 0 2 0 C3.125 5.75 3.125 5.75 2 8 C1.34 7.67 0.68 7.34 0 7 C0 4.69 0 2.38 0 0 Z " fill="#CBC7C7" transform="translate(395,105)"/>
<path d="M0 0 C0.33 0.66 0.66 1.32 1 2 C1.99 2.33 2.98 2.66 4 3 C3.01 3 2.02 3 1 3 C1 3.66 1 4.32 1 5 C2.32 5.33 3.64 5.66 5 6 C3.35 6 1.7 6 0 6 C-0.38218767 4.34385343 -0.71395102 2.67542976 -1 1 C-0.67 0.67 -0.34 0.34 0 0 Z " fill="#3A3A3A" transform="translate(670,106)"/>
</svg>
