<svg width="91" height="102" viewBox="0 0 91 102" fill="none" xmlns="http://www.w3.org/2000/svg">
<path d="M46.6767 55.6687C46.4894 55.6275 46.2963 55.6209 46.1066 55.6491C44.2022 55.4261 42.7656 53.8053 42.7622 51.8773C42.7622 51.4336 42.587 51.008 42.2751 50.6942C41.9631 50.3805 41.5401 50.2042 41.099 50.2042C40.6578 50.2042 40.2348 50.3805 39.9229 50.6942C39.611 51.008 39.4357 51.4336 39.4357 51.8773C39.4407 55.0967 41.5813 57.917 44.6675 58.769V60.4421C44.6675 60.8858 44.8427 61.3114 45.1546 61.6251C45.4666 61.9389 45.8896 62.1152 46.3307 62.1152C46.7719 62.1152 47.1949 61.9389 47.5068 61.6251C47.8188 61.3114 47.994 60.8858 47.994 60.4421V58.8702C51.5561 58.1202 53.9769 54.783 53.6027 51.142C53.2274 47.5009 50.1778 44.734 46.5386 44.7332C44.4531 44.7332 42.7622 43.0323 42.7622 40.9344C42.7622 38.8366 44.4531 37.1356 46.5386 37.1356C48.6242 37.1356 50.3151 38.8363 50.3151 40.9344C50.3151 41.3781 50.4903 41.8037 50.8022 42.1175C51.1141 42.4312 51.5372 42.6075 51.9783 42.6075C52.4194 42.6075 52.8425 42.4312 53.1544 42.1175C53.4663 41.8037 53.6416 41.3781 53.6416 40.9344C53.6368 37.5539 51.2824 34.6381 47.994 33.9405V32.4177C47.994 31.974 47.8188 31.5484 47.5068 31.2347C47.1949 30.9209 46.7719 30.7446 46.3307 30.7446C45.8896 30.7446 45.4666 30.9209 45.1546 31.2347C44.8427 31.5484 44.6675 31.974 44.6675 32.4177V34.0427C41.2354 34.9853 39.0263 38.3373 39.4989 41.8845C39.9715 45.4317 42.9807 48.0792 46.5386 48.0785C48.5967 48.0785 50.2753 49.7361 50.3126 51.8053C50.3508 53.8748 48.7331 55.5934 46.6767 55.6687Z" fill="#405FF2"/>
<path d="M22.4197 46.5365C22.4197 59.9359 33.2179 70.798 46.5385 70.798C59.8591 70.798 70.6573 59.9359 70.6573 46.5365C70.6573 33.1371 59.8591 22.2749 46.5385 22.2749C33.2244 22.2895 22.4353 33.1435 22.4197 46.5365ZM46.5385 25.6211C58.022 25.6211 67.3308 34.985 67.3308 46.5365C67.3308 58.0879 58.022 67.4518 46.5385 67.4518C35.055 67.4518 25.7462 58.0879 25.7462 46.5365C25.7593 34.9906 35.0606 25.6343 46.5385 25.6211Z" fill="#405FF2"/>
<path d="M78.8572 74.9191L65.8281 81.1116C64.9442 79.4579 63.6424 78.068 62.054 77.082C60.4656 76.0961 58.6467 75.5489 56.781 75.4959L44.7532 75.1634C42.8482 75.1086 40.9799 74.6233 39.2867 73.7435L38.063 73.1057C34.9754 71.4869 31.5444 70.6433 28.0626 70.647C24.5808 70.6507 21.1515 71.5015 18.0673 73.1268L18.1436 70.3377C18.1497 70.1181 18.1127 69.8994 18.0347 69.6941C17.9567 69.4888 17.8393 69.301 17.6892 69.1414C17.539 68.9818 17.3591 68.8534 17.1596 68.7638C16.9602 68.6741 16.7451 68.6249 16.5268 68.6188L3.33757 68.2539C3.11923 68.2478 2.90184 68.2851 2.69782 68.3636C2.4938 68.442 2.30715 68.5602 2.14854 68.7113C1.98993 68.8623 1.86246 69.0433 1.77342 69.244C1.68438 69.4446 1.63552 69.6609 1.62962 69.8806L0.832922 98.9943C0.826831 99.214 0.863834 99.4327 0.941814 99.6381C1.01979 99.8434 1.13723 100.031 1.2874 100.191C1.43757 100.351 1.61754 100.479 1.81703 100.568C2.01651 100.658 2.23161 100.707 2.45002 100.713L15.639 101.079H15.6845C16.1179 101.079 16.5342 100.909 16.8449 100.605C17.1555 100.301 17.336 99.8868 17.3478 99.451L17.3858 98.0582L20.8121 96.2128C22.1565 95.4848 23.7297 95.3116 25.1987 95.7299L45.6597 101.506C45.6954 101.517 45.731 101.525 45.7678 101.534C47.2466 101.845 48.7535 102.001 50.2644 102C53.4643 102.002 56.6267 101.308 59.5349 99.9651C59.6065 99.9322 59.6754 99.8939 59.7412 99.8505L89.4078 80.548C89.7638 80.3163 90.0184 79.9565 90.1197 79.5423C90.2209 79.1281 90.1611 78.6906 89.9525 78.3192C87.7502 74.3881 82.865 72.8907 78.8572 74.9191ZM4.20413 97.4145L4.90893 71.6448L14.7724 71.9178L14.0676 97.6882L4.20413 97.4145ZM58.0366 96.9765C54.4233 98.6168 50.3881 99.0699 46.5042 98.2715L26.0986 92.5096C23.8025 91.8568 21.3441 92.1271 19.2424 93.2635L17.4914 94.2071L17.9601 77.0734C20.6841 75.2509 23.8445 74.197 27.1114 74.0217C30.3784 73.8464 33.6322 74.5561 36.5336 76.0769L37.7575 76.7147C39.8964 77.8256 42.256 78.4388 44.6621 78.5089L56.6908 78.8414C60.0693 78.9393 62.9386 81.359 63.624 84.6889L45.7075 84.1914C44.789 84.1663 44.0247 84.8949 43.9987 85.818C43.9866 86.2617 44.1502 86.692 44.4534 87.0143C44.7567 87.3366 45.1748 87.5246 45.6158 87.5369L65.3879 88.0843H65.4343C65.8674 88.084 66.2833 87.9138 66.5936 87.6099C66.9039 87.3059 67.0841 86.8922 67.0959 86.4567C67.1163 85.7296 67.0625 85.0023 66.9352 84.2863L80.2988 77.9344C80.3119 77.9288 80.3248 77.9223 80.3379 77.9156C81.2634 77.4445 82.3101 77.2696 83.3373 77.4143C84.3646 77.5591 85.3232 78.0166 86.0844 78.7254L58.0366 96.9765ZM48.2024 17.5675V1.67309C48.2024 1.22936 48.0271 0.803804 47.7152 0.490038C47.4033 0.176272 46.9802 0 46.5391 0C46.098 0 45.6749 0.176272 45.363 0.490038C45.0511 0.803804 44.8759 1.22936 44.8759 1.67309V17.5675C44.8759 18.0112 45.0511 18.4368 45.363 18.7505C45.6749 19.0643 46.098 19.2406 46.5391 19.2406C46.9802 19.2406 47.4033 19.0643 47.7152 18.7505C48.0271 18.4368 48.2024 18.0112 48.2024 17.5675ZM60.6768 17.5675V10.0386C60.6768 9.59484 60.5015 9.16928 60.1896 8.85551C59.8777 8.54175 59.4546 8.36547 59.0135 8.36547C58.5724 8.36547 58.1493 8.54175 57.8374 8.85551C57.5255 9.16928 57.3503 9.59484 57.3503 10.0386V17.5675C57.3503 18.0112 57.5255 18.4368 57.8374 18.7505C58.1493 19.0643 58.5724 19.2406 59.0135 19.2406C59.4546 19.2406 59.8777 19.0643 60.1896 18.7505C60.5015 18.4368 60.6768 18.0112 60.6768 17.5675ZM35.728 17.5675V10.0386C35.728 9.59484 35.5527 9.16928 35.2408 8.85551C34.9289 8.54175 34.5058 8.36547 34.0647 8.36547C33.6236 8.36547 33.2005 8.54175 32.8886 8.85551C32.5767 9.16928 32.4015 9.59484 32.4015 10.0386V17.5675C32.4015 18.0112 32.5767 18.4368 32.8886 18.7505C33.2005 19.0643 33.6236 19.2406 34.0647 19.2406C34.5058 19.2406 34.9289 19.0643 35.2408 18.7505C35.5527 18.4368 35.728 18.0112 35.728 17.5675Z" fill="#405FF2"/>
</svg>
