<svg width="129" height="76" viewBox="0 0 129 76" fill="none" xmlns="http://www.w3.org/2000/svg">
<path d="M35.1735 64.7852H24.5093C23.8022 64.7852 23.1241 64.503 22.6241 64.0007C22.1241 63.4984 21.8433 62.8171 21.8433 62.1067C21.8433 61.3963 22.1241 60.715 22.6241 60.2126C23.1241 59.7103 23.8022 59.4281 24.5093 59.4281H35.1735C35.8806 59.4281 36.5587 59.7103 37.0587 60.2126C37.5587 60.715 37.8396 61.3963 37.8396 62.1067C37.8396 62.8171 37.5587 63.4984 37.0587 64.0007C36.5587 64.503 35.8806 64.7852 35.1735 64.7852ZM121.82 64.7852H115.155C114.448 64.7852 113.77 64.503 113.27 64.0007C112.77 63.4984 112.489 62.8171 112.489 62.1067C112.489 61.3963 112.77 60.715 113.27 60.2126C113.77 59.7103 114.448 59.4281 115.155 59.4281H119.607L123.201 40.1854C123.153 30.339 114.782 21.9284 104.491 21.9284H86.9855L78.5021 59.4281H93.8266C94.5337 59.4281 95.2118 59.7103 95.7118 60.2126C96.2118 60.715 96.4926 61.3963 96.4926 62.1067C96.4926 62.8171 96.2118 63.4984 95.7118 64.0007C95.2118 64.503 94.5337 64.7852 93.8266 64.7852H75.1643C74.7642 64.7854 74.3692 64.6952 74.0086 64.5212C73.648 64.3471 73.331 64.0938 73.0811 63.7799C72.8312 63.4661 72.6548 63.0998 72.5649 62.7081C72.4751 62.3164 72.4742 61.9095 72.5622 61.5174L82.2559 18.6606C82.3891 18.0672 82.7193 17.5371 83.1922 17.1574C83.6652 16.7777 84.2526 16.571 84.858 16.5713H104.491C117.72 16.5713 128.485 27.3873 128.485 40.6783L124.438 62.5995C124.325 63.2138 124.001 63.7688 123.523 64.168C123.044 64.5673 122.442 64.7857 121.82 64.7852Z" fill="#405FF2"/>
<path d="M104.491 75.5001C97.143 75.5001 91.1603 69.4948 91.1603 62.1073C91.1603 54.7199 97.143 48.7146 104.491 48.7146C111.838 48.7146 117.821 54.7199 117.821 62.1073C117.821 69.4948 111.838 75.5001 104.491 75.5001ZM104.491 54.0717C100.081 54.0717 96.4924 57.677 96.4924 62.1073C96.4924 66.5377 100.081 70.143 104.491 70.143C108.9 70.143 112.489 66.5377 112.489 62.1073C112.489 57.677 108.9 54.0717 104.491 54.0717ZM45.8375 75.5001C38.4899 75.5001 32.5072 69.4948 32.5072 62.1073C32.5072 54.7199 38.4899 48.7146 45.8375 48.7146C53.1851 48.7146 59.1677 54.7199 59.1677 62.1073C59.1677 69.4948 53.1851 75.5001 45.8375 75.5001ZM45.8375 54.0717C41.4278 54.0717 37.8393 57.677 37.8393 62.1073C37.8393 66.5377 41.4278 70.143 45.8375 70.143C50.2471 70.143 53.8356 66.5377 53.8356 62.1073C53.8356 57.677 50.2471 54.0717 45.8375 54.0717ZM35.1733 16.5719H13.8449C13.1378 16.5719 12.4597 16.2897 11.9597 15.7874C11.4597 15.2851 11.1788 14.6038 11.1788 13.8934C11.1788 13.183 11.4597 12.5017 11.9597 11.9994C12.4597 11.497 13.1378 11.2148 13.8449 11.2148H35.1733C35.8804 11.2148 36.5585 11.497 37.0585 11.9994C37.5585 12.5017 37.8393 13.183 37.8393 13.8934C37.8393 14.6038 37.5585 15.2851 37.0585 15.7874C36.5585 16.2897 35.8804 16.5719 35.1733 16.5719ZM35.1733 32.6433H8.5128C7.80572 32.6433 7.1276 32.3611 6.62762 31.8587C6.12763 31.3564 5.84675 30.6751 5.84675 29.9647C5.84675 29.2543 6.12763 28.573 6.62762 28.0707C7.1276 27.5684 7.80572 27.2862 8.5128 27.2862H35.1733C35.8804 27.2862 36.5585 27.5684 37.0585 28.0707C37.5585 28.573 37.8393 29.2543 37.8393 29.9647C37.8393 30.6751 37.5585 31.3564 37.0585 31.8587C36.5585 32.3611 35.8804 32.6433 35.1733 32.6433ZM35.1733 48.7146H3.1807C2.47362 48.7146 1.7955 48.4324 1.29552 47.93C0.795535 47.4277 0.514648 46.7464 0.514648 46.036C0.514648 45.3256 0.795535 44.6443 1.29552 44.142C1.7955 43.6397 2.47362 43.3575 3.1807 43.3575H35.1733C35.8804 43.3575 36.5585 43.6397 37.0585 44.142C37.5585 44.6443 37.8393 45.3256 37.8393 46.036C37.8393 46.7464 37.5585 47.4277 37.0585 47.93C36.5585 48.4324 35.8804 48.7146 35.1733 48.7146Z" fill="#405FF2"/>
<path d="M75.1643 64.7853H56.5019C55.7948 64.7853 55.1167 64.5031 54.6167 64.0007C54.1167 63.4984 53.8359 62.8171 53.8359 62.1067C53.8359 61.3963 54.1167 60.715 54.6167 60.2127C55.1167 59.7104 55.7948 59.4282 56.5019 59.4282H73.0367L85.1513 5.85711H24.5093C23.8022 5.85711 23.1241 5.5749 22.6241 5.07257C22.1241 4.57025 21.8433 3.88895 21.8433 3.17855C21.8433 2.46816 22.1241 1.78686 22.6241 1.28453C23.1241 0.782205 23.8022 0.5 24.5093 0.5H88.4945C88.8946 0.499799 89.2895 0.590053 89.6501 0.764073C90.0107 0.938094 90.3278 1.19142 90.5777 1.50527C90.8276 1.81913 91.004 2.18546 91.0938 2.57713C91.1836 2.9688 91.1846 3.37575 91.0966 3.76783L77.7663 62.696C77.6331 63.2893 77.3029 63.8194 76.83 64.1991C76.3571 64.5789 75.7696 64.7856 75.1643 64.7853Z" fill="#405FF2"/>
</svg>
