<svg width="89" height="100" viewBox="0 0 89 100" fill="none" xmlns="http://www.w3.org/2000/svg">
<path d="M84.5251 35.8222C86.2335 33.966 87.2761 31.4968 87.2761 28.7879C87.2761 23.0395 82.576 18.3622 76.7966 18.3622C71.0171 18.3622 66.3171 23.0395 66.3171 28.7879C66.3171 33.732 69.7941 37.8795 74.4417 38.9449L74.298 39.088L63.7816 49.5543H51.4811C48.6526 49.5543 46.3521 51.8436 46.3521 54.6589C46.3521 55.3724 46.4996 56.0511 46.7675 56.6698H42.2325C42.4984 56.053 42.6479 55.3724 42.6479 54.6589C42.6479 51.8456 40.3474 49.5543 37.5188 49.5543H25.2183L14.702 39.088L14.5602 38.9468C19.2118 37.8814 22.6907 33.734 22.6907 28.7899C22.6907 23.0414 17.9868 18.3641 12.2054 18.3641C6.42786 18.3641 1.72587 23.0414 1.72587 28.7899C1.72587 31.4988 2.77033 33.9679 4.47679 35.8241C1.85789 36.8528 0 39.3954 0 42.3615V70.6977C0 73.8436 2.57231 76.4037 5.7348 76.4037H19.6971V93.7941C19.6971 96.94 22.2694 99.5 25.4319 99.5C28.5944 99.5 31.1667 96.94 31.1667 93.7941V70.6958C31.1667 69.7542 30.9357 68.8667 30.528 68.0836H42.9508V91.6865H40.3338C38.1673 91.6865 36.4064 93.4383 36.4064 95.5903V97.9512C36.4064 98.8058 37.1014 99.4981 37.9595 99.4981H51.0521C51.9102 99.4981 52.6052 98.8058 52.6052 97.9512V95.5884C52.6052 93.4364 50.8424 91.6846 48.6778 91.6846H46.057V68.0816H58.472C58.0643 68.8647 57.8333 69.7542 57.8333 70.6939V93.7902C57.8333 96.9361 60.4056 99.4961 63.5681 99.4961C66.7306 99.4961 69.3029 96.9361 69.3029 93.7902V76.3998H83.2652C86.4277 76.3998 89 73.8398 89 70.6939V42.3596C89.0019 39.3915 87.144 36.8508 84.5251 35.8222ZM49.4971 95.5884V96.4044H39.5107V95.5884C39.5107 95.1418 39.8795 94.7783 40.3319 94.7783H48.6739C49.1282 94.7783 49.4971 95.1418 49.4971 95.5884ZM69.4252 28.7879C69.4252 24.7449 72.7333 21.4559 76.7985 21.4559C80.8637 21.4559 84.1718 24.7449 84.1718 28.7879C84.1718 32.831 80.8637 36.12 76.7985 36.12C72.7333 36.12 69.4252 32.831 69.4252 28.7879ZM49.4621 54.657C49.4621 53.549 50.3687 52.6461 51.485 52.6461H64.4281C64.8397 52.6461 65.2338 52.4837 65.525 52.1936L76.4976 41.2748C77.9691 39.8092 79.3592 38.4248 81.9392 38.4248C84.1213 38.4248 85.8957 40.1901 85.8957 42.3596V64.9899H75.5133V52.3193L79.1844 48.6668C79.3288 48.5234 79.4434 48.353 79.5216 48.1655C79.5999 47.9779 79.6402 47.7769 79.6404 47.5738C79.6406 47.3707 79.6006 47.1696 79.5227 46.9819C79.4448 46.7942 79.3305 46.6236 79.1864 46.48C79.0424 46.3362 78.8713 46.222 78.683 46.1441C78.4947 46.0662 78.2929 46.026 78.0889 46.0258C77.885 46.0256 77.6831 46.0655 77.4946 46.1431C77.3062 46.2207 77.1349 46.3345 76.9907 46.478L67.4761 55.9428C66.981 56.4397 66.418 56.6698 65.7075 56.6698H51.487C50.3687 56.6679 49.4621 55.7668 49.4621 54.657ZM67.2586 64.988V59.5508C68.1633 59.2975 68.9826 58.816 69.6737 58.1258L72.4071 55.4072V64.988H67.2586ZM16.6006 64.988V55.4072L19.3302 58.1219C20.0233 58.816 20.8425 59.2975 21.7491 59.5508V64.988H16.6006ZM24.8553 59.7616H64.1544V64.988H24.8553V59.7616ZM12.2093 21.4559C16.2784 21.4559 19.5884 24.7449 19.5884 28.7879C19.5884 32.831 16.2784 36.12 12.2093 36.12C8.14403 36.12 4.83594 32.831 4.83594 28.7879C4.83594 24.7449 8.14403 21.4559 12.2093 21.4559ZM7.06851 38.4248C9.64665 38.4248 11.0367 39.8092 12.5082 41.2748L23.4808 52.1955C23.772 52.4856 24.1661 52.648 24.5777 52.648H37.5208C38.6371 52.648 39.5437 53.549 39.5437 54.6589C39.5437 55.7668 38.6371 56.6698 37.5208 56.6698H23.3003C22.5878 56.6698 22.0267 56.4378 21.5278 55.9389L12.0171 46.478C11.4114 45.8748 10.4271 45.8748 9.82137 46.48C9.21566 47.0852 9.21566 48.0635 9.82331 48.6668L13.4944 52.3193V64.9899H3.11201V42.3596C3.11201 40.1901 4.88642 38.4248 7.06851 38.4248ZM28.0683 70.6958V93.7921C28.0683 95.2326 26.8879 96.4044 25.4397 96.4044C23.9914 96.4044 22.8111 95.2326 22.8111 93.7921V74.8549C22.8111 74.0003 22.116 73.308 21.258 73.308H5.74062C4.29042 73.308 3.11201 72.1363 3.11201 70.6958V68.0836H25.4397C26.8899 68.0816 28.0683 69.2534 28.0683 70.6958ZM85.8957 70.6958C85.8957 72.1363 84.7154 73.308 83.2671 73.308H67.7517C66.8937 73.308 66.1986 74.0003 66.1986 74.8549V93.7921C66.1986 95.2326 65.0183 96.4044 63.57 96.4044C62.1218 96.4044 60.9414 95.2326 60.9414 93.7921V70.6958C60.9414 69.2553 62.1218 68.0836 63.57 68.0836H85.8977V70.6958H85.8957ZM28.111 28.5211H29.1302V32.3515C29.1303 32.6429 29.2131 32.9285 29.369 33.1751C29.525 33.4217 29.7477 33.6195 30.0116 33.7456C30.2251 33.848 30.4542 33.8983 30.6833 33.8983C31.0308 33.8983 31.3744 33.7823 31.6559 33.558L37.9576 28.5211H45.7366C48.1032 28.5211 50.029 26.6049 50.029 24.2499V23.0124H51.0482L57.3499 28.0493C57.6258 28.2696 57.9689 28.3896 58.3225 28.3896C58.7343 28.3891 59.129 28.226 59.4202 27.936C59.7113 27.646 59.8751 27.2529 59.8756 26.8428V23.0124H60.9007C63.2633 23.0124 65.1872 21.0982 65.1872 18.747V4.77122C65.1872 2.41615 63.2652 0.5 60.9007 0.5H43.2692C40.9026 0.5 38.9768 2.41615 38.9768 4.77122V6.0087H28.111C25.7445 6.0087 23.8186 7.92485 23.8186 10.2799V24.2499C23.8206 26.6049 25.7445 28.5211 28.111 28.5211ZM42.0849 4.77122C42.0849 4.13315 42.6285 3.59369 43.2711 3.59369H60.9026C61.5413 3.59369 62.0829 4.13315 62.0829 4.77122V18.747C62.0829 19.3928 61.553 19.9187 60.9026 19.9187H58.3245C57.4664 19.9187 56.7714 20.6109 56.7714 21.4655V23.6176L52.5683 20.259C52.2924 20.0387 51.9493 19.9186 51.5957 19.9187H50.0309V10.2799C50.0309 7.92485 48.1051 6.0087 45.7386 6.0087H42.0849V4.77122ZM26.9268 10.2799C26.9268 9.63025 27.4587 9.10239 28.1129 9.10239H45.7386C46.3928 9.10239 46.9248 9.63025 46.9248 10.2799V24.2499C46.9248 24.8879 46.3812 25.4274 45.7386 25.4274H37.4121C37.0587 25.4274 36.7151 25.5473 36.4394 25.7677L32.2364 29.1263V26.9742C32.2364 26.1196 31.5414 25.4274 30.6833 25.4274H28.111C27.4567 25.4274 26.9248 24.8995 26.9248 24.2499V10.2799H26.9268ZM29.5884 19.7602C29.5884 18.9055 30.2834 18.2133 31.1415 18.2133H42.7062C43.5643 18.2133 44.2593 18.9055 44.2593 19.7602C44.2593 20.6148 43.5643 21.307 42.7062 21.307H31.1415C30.2853 21.307 29.5884 20.6148 29.5884 19.7602ZM33.5293 14.7677C33.5293 13.9131 34.2243 13.2209 35.0824 13.2209H42.7081C43.5662 13.2209 44.2612 13.9131 44.2612 14.7677C44.2612 15.6223 43.5662 16.3146 42.7081 16.3146H35.0824C34.2243 16.3146 33.5293 15.6223 33.5293 14.7677ZM29.5903 14.7677C29.5903 13.9131 30.2853 13.2209 31.1434 13.2209H31.1453C32.0034 13.2209 32.6984 13.9131 32.6984 14.7677C32.6984 15.6223 32.0034 16.3146 31.1453 16.3146C30.2873 16.3146 29.5903 15.6223 29.5903 14.7677Z" fill="#405FF2"/>
</svg>
