<svg width="45" height="45" viewBox="0 0 45 45" fill="none" xmlns="http://www.w3.org/2000/svg">
<g clip-path="url(#clip0_37_1900)">
<path d="M17.6599 3.33984C14.8839 3.33984 12.3678 4.97312 11.2377 7.50855L6.66492 17.768C3.92361 17.9564 1.75781 20.2382 1.75781 23.0273V27.0704C1.75781 29.4974 3.72533 31.4648 6.15234 31.4648H7.35688C7.36339 31.1267 7.372 30.7886 7.38281 30.4504C7.09672 29.8673 6.93545 29.2118 6.93545 28.5184L6.85546 25.4004C6.85546 23.0945 7.32463 22.2071 9.03622 21.8623C9.84982 21.6983 10.531 21.144 10.8643 20.384L16.5111 7.50855C17.6411 4.97312 20.1573 3.33984 22.9333 3.33984H17.6599Z" fill="#EEF1FB"/>
<path d="M6.15234 31.4648C3.72533 31.4648 1.75781 29.4974 1.75781 27.0704V23.0273C1.75781 20.2382 3.92361 17.9564 6.66492 17.768L11.2377 7.50855C12.3677 4.97312 14.8838 3.33984 17.6599 3.33984H25.6663C28.3081 3.33984 30.7269 4.82063 31.9283 7.17346L34.1894 11.6016M43.2422 23.0273C43.2422 20.1149 40.8811 17.7539 37.9688 17.7539H13.9746M21.1817 11.6016V3.42774M24.3457 31.4648H20.3905M15.5565 27.9492C13.6149 27.9492 12.0409 29.5232 12.0409 31.4648C12.0409 33.4064 13.6149 34.9805 15.5565 34.9805C17.498 34.9805 19.0721 33.4064 19.0721 31.4648C19.0721 29.5232 17.4982 27.9492 15.5565 27.9492Z" stroke="#405FF2" stroke-width="2.25" stroke-miterlimit="10" stroke-linecap="round" stroke-linejoin="round"/>
<path d="M43.2421 31.2012C43.2421 34.5748 40.5073 37.3535 37.1337 37.3535C33.7602 37.3535 31.0254 34.6187 31.0254 31.2452C31.0254 27.8715 33.8041 25.1367 37.1777 25.1367M32.6514 36.0791L27.0703 41.6602" stroke="#FF5CF3" stroke-width="2.25" stroke-miterlimit="10" stroke-linecap="round" stroke-linejoin="round"/>
</g>
<defs>
<clipPath id="clip0_37_1900">
<rect width="45" height="45" fill="white"/>
</clipPath>
</defs>
</svg>
