<svg width="45" height="45" viewBox="0 0 45 45" fill="none" xmlns="http://www.w3.org/2000/svg">
<g clip-path="url(#clip0_112_484)">
<path d="M39.375 21.7969H40.7812V23.2031H39.375V21.7969ZM39.375 27.4219H40.7812V28.8281H39.375V27.4219ZM4.92188 35.8594C2.59453 35.8594 0.703125 37.7508 0.703125 40.0781C0.703125 42.4055 2.59453 44.2969 4.92188 44.2969C7.24922 44.2969 9.14062 42.4055 9.14062 40.0781C9.14062 37.7508 7.24922 35.8594 4.92188 35.8594ZM4.92188 42.8906C3.36797 42.8906 2.10938 41.632 2.10938 40.0781C2.10938 38.5242 3.36797 37.2656 4.92188 37.2656C6.47578 37.2656 7.73438 38.5242 7.73438 40.0781C7.73438 41.632 6.47578 42.8906 4.92188 42.8906ZM4.92188 18.2812C2.59453 18.2812 0.703125 20.1727 0.703125 22.5C0.703125 24.8273 2.59453 26.7188 4.92188 26.7188C7.24922 26.7188 9.14062 24.8273 9.14062 22.5C9.14062 20.1727 7.24922 18.2812 4.92188 18.2812ZM4.92188 25.3125C3.36797 25.3125 2.10938 24.0539 2.10938 22.5C2.10938 20.9461 3.36797 19.6875 4.92188 19.6875C6.47578 19.6875 7.73438 20.9461 7.73438 22.5C7.73438 24.0539 6.47578 25.3125 4.92188 25.3125ZM4.92188 0.703125C2.59453 0.703125 0.703125 2.59453 0.703125 4.92188C0.703125 7.24922 2.59453 9.14062 4.92188 9.14062C7.24922 9.14062 9.14062 7.24922 9.14062 4.92188C9.14062 2.59453 7.24922 0.703125 4.92188 0.703125ZM4.92188 7.73438C3.36797 7.73438 2.10938 6.47578 2.10938 4.92188C2.10938 3.36797 3.36797 2.10938 4.92188 2.10938C6.47578 2.10938 7.73438 3.36797 7.73438 4.92188C7.73438 6.47578 6.47578 7.73438 4.92188 7.73438ZM26.4164 21.9234L22.9008 19.4625L22.0922 20.6156L23.7797 21.7969H17.5711V7.73438C17.5711 5.79375 15.9961 4.21875 14.0555 4.21875H11.243V5.625H14.0555C15.2156 5.625 16.1648 6.57422 16.1648 7.73438V21.7969H11.243V23.2031H16.1648V37.2656C16.1648 38.4258 15.2156 39.375 14.0555 39.375H11.243V40.7812H14.0555C15.9961 40.7812 17.5711 39.2062 17.5711 37.2656V23.2031H23.7797L22.0922 24.3844L22.9008 25.5375L26.4164 23.0766C26.5097 23.0121 26.5859 22.9259 26.6385 22.8255C26.6912 22.7251 26.7187 22.6134 26.7187 22.5C26.7187 22.3866 26.6912 22.2749 26.6385 22.1745C26.5859 22.0741 26.5097 21.9879 26.4164 21.9234Z" fill="#405FF2"/>
<path d="M36.5625 12.6562C32.2242 12.6562 28.8281 14.5125 28.8281 16.875V28.125C28.8281 30.4875 32.2242 32.3438 36.5625 32.3438C40.9008 32.3438 44.2969 30.4875 44.2969 28.125V16.875C44.2969 14.5125 40.9008 12.6562 36.5625 12.6562ZM42.8906 28.125C42.8906 29.4539 40.2891 30.9375 36.5625 30.9375C32.8359 30.9375 30.2344 29.4539 30.2344 28.125V24.9469C31.6195 26.0227 33.9117 26.7188 36.5625 26.7188C39.2133 26.7188 41.5055 26.0227 42.8906 24.9469V28.125ZM42.8906 22.5C42.8906 23.8289 40.2891 25.3125 36.5625 25.3125C32.8359 25.3125 30.2344 23.8289 30.2344 22.5V19.3219C31.6195 20.3977 33.9117 21.0938 36.5625 21.0938C39.2133 21.0938 41.5055 20.3977 42.8906 19.3219V22.5ZM36.5625 19.6875C32.8359 19.6875 30.2344 18.2039 30.2344 16.875C30.2344 15.5461 32.8359 14.0625 36.5625 14.0625C40.2891 14.0625 42.8906 15.5461 42.8906 16.875C42.8906 18.2039 40.2891 19.6875 36.5625 19.6875Z" fill="#405FF2"/>
</g>
<defs>
<clipPath id="clip0_112_484">
<rect width="45" height="45" fill="white"/>
</clipPath>
</defs>
</svg>
