<svg width="43" height="39" viewBox="0 0 43 39" fill="none" xmlns="http://www.w3.org/2000/svg">
<path fill-rule="evenodd" clip-rule="evenodd" d="M40.4409 6.95946C40.1564 6.95946 39.8988 7.07477 39.7125 7.2611C39.5262 7.44743 39.4108 7.70504 39.4108 7.98945C39.4108 8.27387 39.5262 8.53156 39.7125 8.71789C39.8988 8.90422 40.1564 9.01953 40.4409 9.01953C40.7254 9.01953 40.9829 8.90422 41.1694 8.71789C41.3557 8.53147 41.471 8.27395 41.471 7.98945C41.471 7.70495 41.3557 7.44743 41.1694 7.2611C40.983 7.07477 40.7254 6.95946 40.4409 6.95946ZM30.2334 10.7271C30.0845 10.7271 29.9417 10.6679 29.8364 10.5626C29.7311 10.4573 29.6719 10.3145 29.6719 10.1656C29.6719 10.0167 29.7311 9.87391 29.8364 9.76862C29.9417 9.66333 30.0845 9.60418 30.2334 9.60418H33.674L35.6857 7.59254C35.7378 7.54034 35.7996 7.49894 35.8677 7.47071C35.9358 7.44249 36.0089 7.42801 36.0826 7.4281H38.3619C38.4601 7.06458 38.6521 6.73323 38.9186 6.46719C39.3082 6.07757 39.8464 5.83657 40.4409 5.83657C41.0354 5.83657 41.5736 6.07757 41.9633 6.46719C42.353 6.85681 42.5939 7.39505 42.5939 7.98945C42.5939 8.58386 42.3529 9.12219 41.9633 9.51181C41.5737 9.90143 41.0354 10.1424 40.4409 10.1424C39.8464 10.1424 39.3082 9.90143 38.9186 9.51181C38.6521 9.24575 38.4601 8.91441 38.3619 8.5509H36.315L34.3068 10.5592C34.2546 10.6124 34.1923 10.6547 34.1235 10.6835C34.0548 10.7124 33.981 10.7272 33.9064 10.7271H30.2334ZM39.7125 24.6893C39.8988 24.8756 40.1564 24.9909 40.4409 24.9909C40.7254 24.9909 40.9829 24.8756 41.1694 24.6893C41.3557 24.503 41.471 24.2453 41.471 23.9608C41.471 23.6763 41.3557 23.4187 41.1694 23.2324C40.983 23.046 40.7254 22.9308 40.4409 22.9308C40.1564 22.9308 39.8988 23.0461 39.7125 23.2324C39.5262 23.4187 39.4108 23.6763 39.4108 23.9608C39.4108 24.2453 39.5262 24.5029 39.7125 24.6893ZM30.2334 22.3461C30.0845 22.3461 29.9417 22.287 29.8364 22.1817C29.7311 22.0764 29.6719 21.9336 29.6719 21.7847C29.6719 21.6358 29.7311 21.493 29.8364 21.3877C29.9417 21.2824 30.0845 21.2232 30.2334 21.2232H33.9065C34.0632 21.2232 34.205 21.2875 34.3068 21.3911L36.3151 23.3994H38.3619C38.4601 23.0359 38.6521 22.7045 38.9186 22.4385C39.3082 22.0489 39.8464 21.8079 40.4409 21.8079C41.0354 21.8079 41.5737 22.0489 41.9633 22.4385C42.3529 22.8281 42.5939 23.3664 42.5939 23.9608C42.5939 24.5553 42.3529 25.0935 41.9633 25.4832C41.5737 25.8728 41.0354 26.1138 40.4409 26.1138C39.8464 26.1138 39.3082 25.8728 38.9186 25.4832C38.6521 25.2171 38.4601 24.8858 38.3619 24.5223H36.0826C36.0089 24.5224 35.9358 24.5079 35.8677 24.4797C35.7996 24.4515 35.7377 24.4101 35.6857 24.3579L33.674 22.3462H30.2334V22.3461ZM19.8177 22.5565H16.9568V23.6154H16.9546C16.9546 23.7354 16.916 23.8522 16.8445 23.9485C16.773 24.0449 16.6724 24.1157 16.5576 24.1505C16.3629 24.2101 16.1711 24.2793 15.9832 24.3577C15.8093 24.4294 15.6387 24.5089 15.472 24.5959C15.3641 24.6659 15.2355 24.6967 15.1076 24.6832C14.9797 24.6697 14.8603 24.6128 14.7694 24.5219L14.061 23.8135L14.0533 23.8058L14.0202 23.7728L11.9971 25.7958L12.7462 26.5449L12.7448 26.5463C12.8296 26.6311 12.8848 26.7409 12.9025 26.8595C12.9201 26.9781 12.8992 27.0993 12.8427 27.2051C12.7468 27.3854 12.6597 27.5702 12.5819 27.759C12.5099 27.932 12.4456 28.108 12.3893 28.2866C12.3627 28.4127 12.2936 28.5257 12.1935 28.6068C12.0935 28.688 11.9686 28.7323 11.8398 28.7323H10.7809V31.5933H11.8397V31.5955C11.9597 31.5955 12.0765 31.6341 12.1728 31.7056C12.2692 31.7771 12.34 31.8777 12.3748 31.9925C12.4345 32.1872 12.5036 32.3789 12.582 32.5669C12.6537 32.7408 12.7332 32.9113 12.8202 33.0781C12.8902 33.186 12.921 33.3146 12.9075 33.4425C12.8941 33.5704 12.8371 33.6897 12.7462 33.7807L11.9971 34.5298L14.0202 36.5529L14.7693 35.8038L14.7707 35.8052C14.8555 35.7204 14.9653 35.6652 15.0839 35.6475C15.2025 35.6299 15.3236 35.6508 15.4294 35.7073C15.6098 35.8032 15.7947 35.8903 15.9835 35.9682C16.1564 36.0402 16.3325 36.1045 16.5111 36.1608C16.6371 36.1874 16.7502 36.2565 16.8313 36.3565C16.9124 36.4565 16.9567 36.5814 16.9567 36.7102V37.769H19.8176V36.7102H19.8198C19.8199 36.5902 19.8585 36.4734 19.93 36.377C20.0015 36.2807 20.102 36.2099 20.2168 36.175C20.4116 36.1154 20.6033 36.0463 20.7913 35.9678C20.9652 35.8961 21.1357 35.8166 21.3025 35.7296C21.4104 35.6597 21.539 35.6289 21.6669 35.6423C21.7947 35.6558 21.9141 35.7127 22.0051 35.8036L22.7542 36.5527L24.7773 34.5296L24.0281 33.7805L24.0295 33.7791C23.9448 33.6943 23.8895 33.5845 23.8719 33.4659C23.8543 33.3473 23.8752 33.2262 23.9316 33.1204C24.0276 32.94 24.1147 32.7551 24.1926 32.5662C24.2646 32.3933 24.3289 32.2173 24.3851 32.0387C24.4118 31.9127 24.4809 31.7997 24.5809 31.7185C24.681 31.6374 24.8058 31.5931 24.9346 31.5931H25.9935V28.7321H24.9345V28.7299C24.8146 28.7298 24.6978 28.6912 24.6015 28.6197C24.5051 28.5483 24.4343 28.4477 24.3995 28.3329C24.3399 28.1381 24.2707 27.9465 24.1923 27.7585C24.1206 27.5847 24.0411 27.4141 23.954 27.2473C23.8841 27.1395 23.8533 27.0108 23.8667 26.883C23.8802 26.7551 23.9371 26.6357 24.028 26.5447L24.7772 25.7957L22.7541 23.7726L22.005 24.5217L22.0036 24.5203C21.9188 24.605 21.809 24.6603 21.6904 24.6779C21.5718 24.6955 21.4506 24.6746 21.3448 24.6182C21.1645 24.5223 20.9796 24.4352 20.7908 24.3573C20.6179 24.2853 20.4418 24.221 20.2632 24.1648C20.1371 24.1382 20.0241 24.0691 19.943 23.969C19.8618 23.869 19.8176 23.7441 19.8176 23.6154V22.5564L19.8177 22.5565ZM18.3872 26.369C19.4348 26.369 20.3833 26.7937 21.0698 27.4803C21.7564 28.1669 22.1811 29.1153 22.1811 30.1629C22.1811 31.2104 21.7564 32.1588 21.0699 32.8454C20.3833 33.5321 19.4349 33.9566 18.3873 33.9566C17.3397 33.9566 16.3913 33.532 15.7047 32.8454C15.0182 32.1589 14.5935 31.2104 14.5935 30.1629C14.5935 29.1153 15.0182 28.1668 15.7047 27.4803C16.3912 26.7937 17.3397 26.3691 18.3873 26.3691L18.3872 26.369ZM20.7117 28.8463C20.9395 29.2477 21.0589 29.7014 21.0581 30.1629C21.0581 30.9004 20.7591 31.5682 20.2759 32.0515C19.7926 32.5348 19.1248 32.8338 18.3872 32.8338C17.6496 32.8338 16.9819 32.5348 16.4985 32.0515C16.3387 31.8917 16.1997 31.7124 16.0848 31.5177L20.7117 28.8464V28.8463ZM15.7297 30.4317C15.7207 30.3423 15.7163 30.2526 15.7163 30.1628C15.7163 29.4252 16.0153 28.7574 16.4985 28.2741C16.9819 27.7908 17.6496 27.4919 18.3872 27.4919C18.9479 27.491 19.4945 27.6673 19.949 27.9957L15.7297 30.4317ZM27.379 9.4255V23.7046L25.4105 24.8412L23.5247 22.9554L23.5236 22.9565L23.5225 22.9554C23.4217 22.8543 23.302 22.7742 23.1701 22.7195C23.0383 22.6648 22.897 22.6367 22.7542 22.6368C22.4944 22.6368 22.2338 22.7299 22.0274 22.916C22.0122 22.9284 21.9976 22.9415 21.9838 22.9554L21.4957 23.4433C21.3141 23.3587 21.129 23.2819 20.9407 23.2132V22.5232C20.9407 22.2467 20.8351 21.9924 20.6619 21.7987C20.6491 21.7828 20.6355 21.7676 20.6211 21.7532C20.5201 21.6519 20.4001 21.5714 20.2679 21.5166C20.1358 21.4617 19.9941 21.4335 19.851 21.4336H16.9238C16.7807 21.4335 16.639 21.4617 16.5069 21.5166C16.3747 21.5714 16.2547 21.6519 16.1538 21.7532C16.0524 21.8542 15.972 21.9742 15.9171 22.1063C15.8623 22.2385 15.8341 22.3801 15.8341 22.5232V23.2132C15.6458 23.2818 15.4606 23.3586 15.2791 23.4433L15.0158 23.1801V16.5634L27.3792 9.42541L27.379 9.4255ZM0.407705 8.45466C0.407582 8.37361 0.42519 8.29351 0.459297 8.21999L0.460527 8.21735L0.464834 8.20839L0.468789 8.20048L0.469932 8.19828C0.48918 8.16084 0.512734 8.12533 0.54042 8.09264L0.540684 8.09228L0.549121 8.08253L0.549648 8.08191L0.550615 8.08086L0.557207 8.07365L0.560635 8.06996L0.564326 8.06609C0.603526 8.02531 0.648086 7.99139 0.69625 7.96476L7.43043 4.07674L7.43096 4.0777L14.1434 0.202255C14.2305 0.144226 14.332 0.111725 14.4366 0.108432C14.5411 0.105139 14.6445 0.131185 14.735 0.183622L28.1856 7.94937C28.2805 7.99538 28.3605 8.06718 28.4164 8.15654C28.4724 8.2459 28.5021 8.34922 28.502 8.45466V24.0272H28.5007C28.5007 24.1254 28.4749 24.2219 28.4259 24.3069C28.3768 24.392 28.3063 24.4627 28.2213 24.5118L25.9122 25.845C25.8997 26.1164 25.7861 26.3733 25.5936 26.5651L25.5948 26.5663L25.1067 27.0543C25.1914 27.2359 25.2682 27.4211 25.3368 27.6093H26.0269C26.3252 27.6093 26.5974 27.7321 26.7958 27.9301L26.797 27.9289C26.8983 28.0299 26.9787 28.15 27.0336 28.2821C27.0884 28.4143 27.1167 28.5559 27.1166 28.699V31.6263C27.1166 31.9251 26.9942 32.1969 26.797 32.3941L26.7958 32.3952L26.797 32.3963C26.696 32.4977 26.576 32.5781 26.4438 32.6329C26.3117 32.6878 26.17 32.716 26.0269 32.716H25.337C25.2685 32.9043 25.1917 33.0895 25.1069 33.271L25.5949 33.759C25.6961 33.8601 25.7763 33.9802 25.831 34.1125C25.8857 34.2447 25.9137 34.3864 25.9135 34.5295C25.9135 34.8066 25.8069 35.0853 25.5937 35.2989L25.5949 35.3001L23.525 37.37C23.5111 37.3839 23.4965 37.397 23.4813 37.4093C23.282 37.5893 23.0229 37.6888 22.7544 37.6886C22.6117 37.6887 22.4704 37.6606 22.3385 37.6059C22.2067 37.5512 22.0869 37.471 21.9862 37.37L21.9851 37.3688L21.984 37.37L21.4959 36.8819C21.4053 36.9242 21.3138 36.9645 21.2214 37.0028C21.1303 37.0406 21.0368 37.077 20.9409 37.112V37.802C20.9409 38.1008 20.8185 38.3726 20.6212 38.5699L20.6201 38.5709L20.6212 38.5721C20.5202 38.6734 20.4002 38.7538 20.2681 38.8087C20.136 38.8635 19.9943 38.8917 19.8512 38.8917H16.9239C16.7809 38.8918 16.6392 38.8635 16.507 38.8087C16.3749 38.7538 16.2549 38.6734 16.1539 38.5721C16.14 38.5581 16.1268 38.5435 16.1144 38.5282C15.9342 38.3292 15.8344 38.0704 15.8343 37.802V37.1119C15.646 37.0433 15.4608 36.9665 15.2792 36.8818L14.7913 37.3698C14.7774 37.3837 14.7628 37.3968 14.7476 37.4092C14.5483 37.5891 14.2892 37.6886 14.0207 37.6884C13.878 37.6885 13.7367 37.6604 13.6048 37.6057C13.473 37.551 13.3533 37.4709 13.2525 37.3698L13.2514 37.3687L13.2503 37.3698L11.1803 35.2998C10.9679 35.0874 10.8617 34.8081 10.8617 34.5293C10.8617 34.2506 10.9679 33.9734 11.1803 33.7611L11.1814 33.76L11.1803 33.7589L11.6683 33.2709C11.5835 33.0893 11.5067 32.9041 11.4382 32.7158H10.7481C10.4494 32.7158 10.1775 32.5934 9.98031 32.3962L9.97812 32.394C9.78089 32.1967 9.65846 31.9249 9.65846 31.6261V29.6898L7.46172 28.4216C7.45117 28.4163 7.44079 28.4108 7.43061 28.4049L0.723145 24.5322C0.628281 24.4862 0.548292 24.4144 0.492335 24.3251C0.436377 24.2357 0.406713 24.1324 0.406738 24.0269V8.45439H0.408057L0.407705 8.45466ZM6.45669 12.2703V16.8158L7.26212 16.5574C7.36599 16.5186 7.47903 16.5116 7.58692 16.5371C7.69481 16.5626 7.7927 16.6196 7.86821 16.7007L8.74264 17.6361V13.5901L6.45669 12.2703ZM19.4962 4.22615L7.1302 11.3658L9.41887 12.6871L21.785 5.5475L19.4962 4.22615ZM6.01003 10.7191L18.3761 3.57945L14.4531 1.31451L7.99117 5.04529L7.9917 5.04626L2.08809 8.45475L6.01003 10.7191ZM9.86553 14.2385L13.8927 16.5635V22.6443C13.6696 22.6706 13.4602 22.7656 13.2934 22.9161C13.2782 22.9284 13.2637 22.9416 13.2498 22.9555L11.1798 25.0254L11.181 25.0265L11.1798 25.0276C10.9675 25.24 10.8612 25.5184 10.8612 25.7958C10.8612 26.0732 10.9675 26.3539 11.1798 26.5663L11.6678 27.0542C11.5831 27.2358 11.5063 27.421 11.4377 27.6093H10.7477C10.6046 27.6092 10.4629 27.6375 10.3308 27.6923C10.1986 27.7472 10.0786 27.8276 9.97759 27.9289C9.8415 28.0648 9.74375 28.2342 9.69423 28.42L8.02026 27.4535C8.01086 27.4473 8.00127 27.4414 7.99152 27.4357L1.5291 23.7046V9.42541L5.33362 11.622V17.5836H5.33529C5.33529 17.6718 5.35612 17.7587 5.39608 17.8373C5.43604 17.9159 5.49401 17.9839 5.56526 18.0359C5.6365 18.0878 5.71901 18.1222 5.80606 18.1362C5.89312 18.1502 5.98225 18.1434 6.06619 18.1165L7.29077 17.7237L8.86938 19.4122C8.9427 19.5018 9.04196 19.5666 9.15355 19.5976C9.26514 19.6287 9.3836 19.6244 9.49268 19.5855C9.60177 19.5466 9.69615 19.4749 9.76289 19.3802C9.82962 19.2855 9.86544 19.1726 9.86544 19.0567V14.2383L9.86553 14.2385ZM22.9052 6.19429L10.539 13.3338L14.4541 15.5942L26.8202 8.45466L22.9052 6.19429ZM2.51146 22.9351L5.88294 24.8818C5.94659 24.9186 6.01687 24.9426 6.08978 24.9523C6.16269 24.962 6.23679 24.9572 6.30786 24.9383C6.37893 24.9193 6.44558 24.8866 6.50399 24.8419C6.5624 24.7972 6.61143 24.7414 6.64829 24.6778C6.68515 24.6141 6.70911 24.5438 6.71881 24.4709C6.72851 24.398 6.72375 24.3239 6.7048 24.2528C6.68586 24.1818 6.65311 24.1151 6.60841 24.0567C6.56371 23.9983 6.50795 23.9493 6.4443 23.9124L3.07281 21.9657C2.94427 21.8913 2.79142 21.871 2.64789 21.9092C2.50436 21.9475 2.3819 22.0412 2.30746 22.1697C2.23302 22.2983 2.21269 22.4511 2.25095 22.5947C2.2892 22.7382 2.38291 22.8606 2.51146 22.9351ZM2.54125 20.8397L5.91282 22.7863C5.97647 22.8231 6.04676 22.8471 6.11966 22.8568C6.19257 22.8665 6.26668 22.8617 6.33775 22.8428C6.40882 22.8238 6.47546 22.7911 6.53387 22.7464C6.59228 22.7017 6.64131 22.6459 6.67817 22.5823C6.71503 22.5186 6.739 22.4484 6.74869 22.3754C6.75839 22.3025 6.75363 22.2284 6.73469 22.1574C6.71574 22.0863 6.68299 22.0196 6.63829 21.9612C6.59359 21.9028 6.53783 21.8538 6.47418 21.8169L3.10261 19.8703C3.03896 19.8335 2.96867 19.8095 2.89577 19.7998C2.82286 19.7901 2.74875 19.7949 2.67768 19.8138C2.60661 19.8328 2.53997 19.8655 2.48156 19.9102C2.42315 19.9549 2.37411 20.0107 2.33726 20.0743C2.3004 20.138 2.27643 20.2083 2.26674 20.2812C2.25704 20.3541 2.2618 20.4282 2.28074 20.4992C2.29969 20.5703 2.33244 20.637 2.37714 20.6954C2.42184 20.7538 2.4776 20.8028 2.54125 20.8397ZM35.5499 16.5366H30.2994C30.1505 16.5366 30.0077 16.4774 29.9024 16.3721C29.7971 16.2668 29.7379 16.124 29.7379 15.9751C29.7379 15.8262 29.7971 15.6834 29.9024 15.5781C30.0077 15.4728 30.1505 15.4137 30.2994 15.4137H35.5499C35.6482 15.0502 35.8401 14.7188 36.1066 14.4528C36.4962 14.0631 37.0345 13.8221 37.6289 13.8221C38.2234 13.8221 38.7616 14.0631 39.1513 14.4528C39.5409 14.8424 39.7819 15.3806 39.7819 15.9751C39.7819 16.5696 39.5409 17.1078 39.1513 17.4975C38.7617 17.8871 38.2234 18.1281 37.6289 18.1281C37.0345 18.1281 36.4962 17.8871 36.1066 17.4975C35.8401 17.2314 35.6482 16.9001 35.5499 16.5366ZM36.5988 15.9728V15.9776C36.5994 16.2611 36.7146 16.5178 36.9004 16.7036C37.0862 16.8894 37.3444 17.0053 37.6289 17.0053C37.9134 17.0053 38.1709 16.89 38.3573 16.7036C38.5436 16.5173 38.6589 16.2597 38.6589 15.9752C38.6589 15.6907 38.5436 15.4332 38.3573 15.2468C38.171 15.0604 37.9134 14.9451 37.6289 14.9451C37.3444 14.9451 37.0868 15.0604 36.9004 15.2468C36.7141 15.4331 36.5994 15.6893 36.5988 15.9728Z" fill="#405FF2"/>
</svg>
