<svg width="43" height="43" viewBox="0 0 43 43" fill="none" xmlns="http://www.w3.org/2000/svg">
<path fill-rule="evenodd" clip-rule="evenodd" d="M26.0504 31.4396L32.2667 25.2234C33.1735 24.3164 34.5461 24.2719 35.6282 24.7164C36.0629 24.895 36.4671 25.1589 36.78 25.4927C36.8855 24.9977 36.9314 24.4494 36.9314 23.8409V17.1717C36.9314 14.7868 39.5768 13.0347 41.2633 13.7464C41.9476 14.0352 42.4152 14.6708 42.4152 15.7291L42.418 28.8435C42.418 30.0555 41.9703 31.1351 41.114 31.9914L35.4821 37.6233C34.8785 38.2269 34.5901 38.9242 34.5901 39.7768L34.5873 41.7148C34.5872 41.9006 34.5134 42.0787 34.3821 42.21C34.2508 42.3414 34.0726 42.4152 33.8869 42.4152H25.4495C25.2638 42.4152 25.0857 42.3414 24.9543 42.21C24.823 42.0787 24.7492 41.9006 24.7491 41.7148L24.7464 34.5875C24.7465 33.3755 25.1942 32.2958 26.0504 31.4396ZM10.743 31.0035C10.8095 31.0685 10.8624 31.1461 10.8987 31.2317C10.935 31.3173 10.954 31.4093 10.9545 31.5023C10.955 31.5953 10.9371 31.6874 10.9017 31.7735C10.8664 31.8595 10.8143 31.9376 10.7486 32.0034C10.6828 32.0692 10.6047 32.1212 10.5186 32.1566C10.4326 32.1919 10.3405 32.2098 10.2475 32.2093C10.1545 32.2088 10.0625 32.1898 9.97687 32.1535C9.89126 32.1172 9.81369 32.0643 9.74867 31.9978L6.3401 28.5892C5.04257 27.2918 4.66235 25.6905 4.66235 23.841V17.1718C4.66235 15.6759 2.94805 14.7558 2.28052 15.0374C2.10526 15.1113 1.98556 15.328 1.98556 15.7291L1.98828 28.8435C1.98828 29.6962 2.27665 30.3935 2.88028 30.9971L8.51223 36.629C9.36846 37.4853 9.81617 38.5649 9.81617 39.7768L9.81345 41.0144H16.85L16.8472 34.5875C16.8472 33.7348 16.5589 33.0375 15.9553 32.4339L9.73909 26.2177C8.97743 25.4559 7.37923 25.9783 7.05043 26.7335C6.94795 26.9689 7.00745 27.2679 7.3344 27.5949L10.743 31.0035ZM33.2512 31.9977C33.1862 32.0642 33.1087 32.1171 33.023 32.1534C32.9374 32.1898 32.8455 32.2087 32.7525 32.2092C32.6595 32.2098 32.5673 32.1918 32.4813 32.1565C32.3952 32.1211 32.3171 32.0691 32.2513 32.0033C32.1856 31.9375 32.1335 31.8594 32.0982 31.7734C32.0628 31.6874 32.0449 31.5952 32.0454 31.5022C32.0459 31.4092 32.0649 31.3172 32.1012 31.2316C32.1375 31.146 32.1904 31.0684 32.2569 31.0034L35.6655 27.5948C36.1537 27.1066 36.0571 26.7026 35.6491 26.347C35.025 25.803 33.867 25.6115 33.2609 26.2176L27.0447 32.4338C26.441 33.0375 26.1528 33.7347 26.1528 34.5874L26.15 41.0143H33.1866L33.1838 39.7767C33.1838 38.5648 33.6315 37.4852 34.4878 36.6289L40.1197 30.997C40.7233 30.3934 41.0117 29.6961 41.0117 28.8434L41.0144 15.729C41.0144 15.1224 40.7714 14.9459 40.3039 14.997C39.3792 15.0982 38.3376 16.0544 38.3376 17.1717V23.8409C38.3376 25.6904 37.9574 27.2917 36.6599 28.5891L33.2512 31.9977ZM32.9644 7.09566C29.2621 4.95808 25.5619 2.82101 21.8586 0.683778C21.7518 0.620073 21.63 0.585972 21.5057 0.584983C21.3814 0.583994 21.259 0.616155 21.1512 0.678153L10.0843 7.06754C9.96178 7.12359 9.85791 7.21367 9.78509 7.32706C9.71226 7.44044 9.67354 7.57236 9.67353 7.70712L9.67511 20.5513C9.67508 20.6743 9.7074 20.7951 9.76883 20.9016C9.83026 21.0082 9.91864 21.0967 10.0251 21.1582L21.1067 27.5562C21.3652 27.7181 21.6346 27.7181 21.8932 27.5563L32.9307 21.1838C33.0494 21.1261 33.1494 21.0362 33.2194 20.9244C33.2894 20.8125 33.3265 20.6832 33.3265 20.5513L33.3236 7.70721C33.3235 7.58253 33.2902 7.46012 33.2271 7.35261C33.1639 7.24511 33.0732 7.15641 32.9644 7.09566ZM22.2031 14.5316V25.7575L31.9202 20.1472V8.9215L22.2031 14.5316ZM15.8348 10.05L25.5566 4.43715L27.1652 5.36589L17.4433 10.9788L15.8348 10.05ZM15.1365 11.2636L16.7403 12.1896V14.7886L15.1365 13.8625V11.2636ZM28.5668 6.17351L18.8436 11.7872L21.5 13.3209L31.2232 7.70721L28.5668 6.17351ZM18.1465 13.0015L20.7969 14.5317V25.7575L11.0798 20.1473V8.9215L13.7302 10.4517V14.2666C13.7302 14.3985 13.7673 14.5278 13.8373 14.6397C13.9073 14.7515 14.0073 14.8414 14.126 14.8991L17.0918 16.6115C17.5639 16.8845 18.1454 16.5377 18.145 16.0045L18.1465 13.0015ZM14.4318 9.24011L11.7768 7.70721L21.5 2.09354L24.155 3.62644L14.4318 9.24011ZM10.7333 25.2234L16.9496 31.4396C17.8058 32.2958 18.2535 33.3755 18.2535 34.5875L18.2508 41.7148C18.2507 41.9006 18.1769 42.0787 18.0456 42.21C17.9143 42.3414 17.7361 42.4152 17.5504 42.4152H9.11305C8.9273 42.4152 8.74916 42.3414 8.61782 42.21C8.48647 42.0787 8.41267 41.9006 8.41265 41.7148L8.40983 39.7768C8.40983 38.9242 8.12147 38.2269 7.51783 37.6233L1.88589 31.9914C1.02975 31.1351 0.582031 30.0554 0.582031 28.8435L0.584756 15.7291C0.584756 13.6975 2.34239 13.1526 3.9275 13.9276C5.04731 14.4751 6.0686 15.6711 6.0686 17.1718V23.841C6.0686 24.4495 6.11448 24.9978 6.21995 25.4928C6.53275 25.1591 6.93723 24.8949 7.37176 24.7165C8.45387 24.2719 9.82645 24.3165 10.7333 25.2234Z" fill="#405FF2"/>
</svg>
