<svg width="29" height="21" viewBox="0 0 29 21" fill="none" xmlns="http://www.w3.org/2000/svg">
<path d="M7.325 20.225C5.575 20.225 4 19.525 2.6 18.125C1.2 16.675 0.5 14.55 0.5 11.75C0.5 8.54997 1.35 5.94999 3.05 3.95C4.8 1.9 7.275 0.875 10.475 0.875C11.625 0.875 12.525 0.949999 13.175 1.1V4.55C12.475 4.44999 11.575 4.4 10.475 4.4C8.77497 4.4 7.4 4.97499 6.35 6.125C5.35 7.125 4.775 8.45 4.625 10.1C5.275 9.29997 6.325 8.9 7.775 8.9C9.275 8.9 10.55 9.425 11.6 10.475C12.65 11.475 13.175 12.8 13.175 14.45C13.175 16.15 12.625 17.55 11.525 18.65C10.425 19.7 9.02503 20.225 7.325 20.225ZM22.25 20.225C20.5 20.225 18.925 19.525 17.525 18.125C16.125 16.675 15.425 14.55 15.425 11.75C15.425 8.54997 16.275 5.94999 17.975 3.95C19.725 1.9 22.2 0.875 25.4 0.875C26.55 0.875 27.45 0.949999 28.1 1.1V4.55C27.4 4.44999 26.5 4.4 25.4 4.4C23.7 4.4 22.325 4.97499 21.275 6.125C20.275 7.125 19.7 8.45 19.55 10.1C20.2 9.29997 21.25 8.9 22.7 8.9C24.2 8.9 25.475 9.425 26.525 10.475C27.575 11.475 28.1 12.8 28.1 14.45C28.1 16.15 27.55 17.55 26.45 18.65C25.35 19.7 23.95 20.225 22.25 20.225Z" fill="#050B20"/>
</svg>
